<svg viewBox="0 0 128 128" xmlns="http://www.w3.org/2000/svg" xml:space="preserve" style="fill-rule:evenodd;clip-rule:evenodd;stroke-linejoin:round;stroke-miterlimit:2">
<style>
  .black { fill: #000; }
  .crimson { fill: #ec008c; }
  .yellow { fill: #fff200; }
  .crimson.yellow { fill: #ed1c24; }
  .cyan { fill: #00aeef; }
  .cyan.yellow { fill: #00a650; }
  .cyan.crimson { fill: #2e3092; }
  .black { fill: #000;}
  .white { fill: #fff;}

  @media (prefers-color-scheme: dark) {
    .black { fill: #fff;}
    .white { fill: #000;}
  }
</style>
<path class="crimson" d="M100.855 14.741a32.5 32.5 0 0 0-1.142-.076 180.576 180.576 0 0 0-6.854-.2 49.611 49.611 0 0 0-7.578-4.288c5.687.791 10.953 2.378 15.574 4.564Zm-74.101 95.741c6.462 2.075 15.999 2.201 31.77.734 7.042.873 14.742 1.079 22.878.819-4.429 3.357-11.066 5.797-21.938 6.414-16.346.927-26.014-1.651-32.71-7.967Z"/>
<path class="yellow" d="M26.754 110.482c-8.617-2.767-11.767-8.999-16.942-19.538-8.033-16.36-5.456-44.527 7.754-58.913-1.44 4.915-1.753 10.353-1.527 16.335C10.88 58.9 8.864 70.792 12.67 82.559c4.121 12.742 7.79 21.985 14.084 27.923Zm74.101-95.741c17.956 1.496 28.507 17.142 20.278 55.631-1.092 5.108-2.824 9.957-5.452 14.416 1.638-8.318 1.522-17.6.31-26.384 3.923-9.985 5.605-20.319 1.808-28.183-3.02-6.253-9.039-11.742-16.944-15.48Z" />
<path class="crimson yellow" d="M16.039 48.366c.308 8.171 1.621 17.356 2.437 27.605 1.821 22.885 17.583 32.459 40.048 35.245-15.771 1.467-25.308 1.341-31.77-.734-6.294-5.938-9.963-15.181-14.084-27.923-3.806-11.767-1.79-23.659 3.369-34.193Zm76.82-33.901c2.477.028 4.777.097 6.854.2a32.5 32.5 0 0 1 1.142.076c7.905 3.738 13.924 9.227 16.944 15.48 3.797 7.864 2.115 18.198-1.808 28.183-1.329-9.63-3.975-18.662-7.074-25.166-3.64-7.643-9.199-14.05-16.058-18.773Z"/>
<path class="cyan" d="M85.281 10.177c-12.368-1.72-26.731.324-40.798 8.163a60.95 60.95 0 0 0-2.437 1.437c-6.425 1.65-12.324 3.757-17.15 6.417-2.728 1.503-5.171 3.486-7.33 5.837 2.723-9.291 9.478-16.708 24.245-22.384 15.583-5.99 30.963-5.167 43.47.53Zm-3.879 101.858c2.402-1.82 4.155-3.911 5.582-6.127 14.544-4.785 23.423-12.17 28.697-21.12-2.842 14.432-10.964 25.961-27.797 26.95-2.188.129-4.35.229-6.482.297Z"/>
<path class="cyan yellow" d="M17.566 32.031c2.159-2.351 4.602-4.334 7.33-5.837 4.826-2.66 10.725-4.767 17.15-6.417-10.108 6.283-20.111 16.55-26.007 28.589-.226-5.982.087-11.42 1.527-16.335Zm98.115 52.757c-5.274 8.95-14.153 16.335-28.697 21.12 3.617-5.615 5.141-12.035 9.839-16.905 5.579-5.784 14.183-17.91 19.168-30.599 1.212 8.784 1.328 18.066-.31 26.384Z"/>
<path class="cyan crimson" d="M85.281 10.177a49.611 49.611 0 0 1 7.578 4.288c-14.234-.16-34.27 1.063-50.813 5.312a60.95 60.95 0 0 1 2.437-1.437c14.067-7.839 28.43-9.883 40.798-8.163Zm-3.879 101.858c-8.136.26-15.836.054-22.878-.819 1.179-.11 2.392-.228 3.642-.355 9.702-.989 17.901-2.677 24.818-4.953-1.427 2.216-3.18 4.307-5.582 6.127Z" />
<path class="black" d="M42.046 19.777c-10.108 6.283-20.111 16.55-26.007 28.589.308 8.171 1.621 17.356 2.437 27.605 1.821 22.885 17.583 32.459 40.048 35.245 1.179-.11 2.392-.228 3.642-.355 9.702-.989 17.901-2.677 24.818-4.953 3.617-5.615 5.141-12.035 9.839-16.905 5.579-5.784 14.183-17.91 19.168-30.599-1.329-9.63-3.975-18.662-7.074-25.166-3.64-7.643-9.199-14.05-16.058-18.773-14.234-.16-34.27 1.063-50.813 5.312Z"/>
<path class="white" d="M48.852 76.86V59.897c0-1.157-.184-2.143-.552-2.958-.369-.816-.842-1.42-1.421-1.815-.578-.394-1.13-.671-1.656-.828a5.46 5.46 0 0 0-1.578-.237 5.46 5.46 0 0 0-1.578.237c-.526.157-1.079.434-1.657.828-.579.395-1.052.999-1.42 1.815-.368.815-.553 1.801-.553 2.958V76.86c0 1.631-.046 2.801-.138 3.511a6.532 6.532 0 0 1-.651 2.091c-.473.947-1.216 1.709-2.228 2.288-1.013.578-2.163.868-3.452.868-1.289 0-2.439-.29-3.452-.868-1.012-.579-1.755-1.341-2.229-2.288a6.532 6.532 0 0 1-.651-2.091c-.092-.71-.138-1.88-.138-3.511V51.298c0-1.631.046-2.801.138-3.511.092-.71.309-1.407.651-2.091.474-.947 1.217-1.709 2.229-2.288 1.013-.579 2.163-.868 3.452-.868 2.735 0 4.76 1.262 6.075 3.787 1.262-1.262 2.794-2.235 4.596-2.919 1.801-.684 3.583-1.026 5.345-1.026 3.945 0 7.127 1.21 9.546 3.63 1.684 1.683 2.814 3.484 3.393 5.404.579 1.92.868 4.168.868 6.746V76.86c0 1.631-.046 2.801-.138 3.511a6.532 6.532 0 0 1-.651 2.091c-.473.947-1.216 1.709-2.229 2.288-1.012.578-2.163.868-3.452.868-1.288 0-2.439-.29-3.451-.868-1.013-.579-1.756-1.341-2.229-2.288a6.532 6.532 0 0 1-.651-2.091c-.092-.71-.138-1.88-.138-3.511ZM94.612 85.302H75.835c-2.341 0-4.077-.289-5.208-.868-.894-.447-1.564-1.085-2.012-1.913a5.37 5.37 0 0 1-.67-2.584c0-1.078.177-2.031.532-2.86.355-.828 1.046-1.926 2.071-3.294l14.439-19.251h-8.206c-1.446 0-2.498-.039-3.156-.118a5.47 5.47 0 0 1-1.893-.592c-.842-.42-1.525-1.091-2.051-2.012-.526-.92-.789-1.959-.789-3.116s.263-2.196.789-3.116c.526-.921 1.209-1.591 2.051-2.012a5.47 5.47 0 0 1 1.893-.592c.658-.079 1.71-.118 3.156-.118h17.831c2.341 0 4.076.289 5.207.868.894.447 1.565 1.084 2.012 1.913.447.828.671 1.689.671 2.584 0 1.078-.178 2.031-.533 2.86-.355.828-1.045 1.926-2.071 3.294l-14.517 19.25h9.231c1.446 0 2.498.04 3.156.119a5.49 5.49 0 0 1 1.893.591c.842.421 1.526 1.092 2.052 2.012.526.921.789 1.96.789 3.117s-.263 2.196-.789 3.116c-.526.921-1.21 1.591-2.052 2.012a5.47 5.47 0 0 1-1.893.592c-.658.079-1.71.118-3.156.118Z" style="fill-rule:nonzero"/>
</svg>
