<?xml version="1.0" encoding="UTF-8" standalone="no"?>
<!DOCTYPE svg PUBLIC "-//W3C//DTD SVG 1.1//EN" "http://www.w3.org/Graphics/SVG/1.1/DTD/svg11.dtd">
<svg width="100%" height="100%" viewBox="0 0 376 400" version="1.1" xmlns="http://www.w3.org/2000/svg" xmlns:xlink="http://www.w3.org/1999/xlink" xml:space="preserve" xmlns:serif="http://www.serif.com/" style="fill-rule:evenodd;clip-rule:evenodd;stroke-linejoin:round;stroke-miterlimit:2;">
    <g transform="matrix(1,0,0,1,-1016,0)">
        <g id="_3" serif:id="3" transform="matrix(0.612834,0,0,0.578662,1016.05,537.004)">
            <rect x="0" y="-928.01" width="611.911" height="691.25" style="fill:none;"/>
            <g transform="matrix(1,0,0,1,0,-13.3204)">
                <g opacity="0.25">
                    <g transform="matrix(1.63176,0,0,1.72813,-1657.95,-928.01)">
                        <path d="M1075.19,142.185C1059.52,144.251 1044.77,133.712 1041.81,117.993C1038.74,101.722 1049.46,86.023 1065.74,82.957L1067.08,82.703C1068.92,82.358 1070.78,82.185 1072.64,82.185L1330.47,82.185C1347.03,82.185 1360.47,95.627 1360.47,112.185C1360.47,128.742 1347.03,142.185 1330.47,142.185L1075.19,142.185Z" style="fill:rgb(255,238,0);"/>
                    </g>
                    <g transform="matrix(1.63176,0,0,1.72813,-1657.95,-763.153)">
                        <path d="M1075.19,142.185C1059.52,144.251 1044.77,133.712 1041.81,117.993C1038.74,101.722 1049.46,86.023 1065.74,82.957L1067.08,82.703C1068.92,82.358 1070.78,82.185 1072.64,82.185L1330.47,82.185C1347.03,82.185 1360.47,95.627 1360.47,112.185C1360.47,128.742 1347.03,142.185 1330.47,142.185L1075.19,142.185Z" style="fill:rgb(255,238,0);"/>
                    </g>
                    <g transform="matrix(1.63176,0,0,1.72813,-1657.95,-598.296)">
                        <path d="M1075.19,142.185C1059.52,144.251 1044.77,133.712 1041.81,117.993C1038.74,101.722 1049.46,86.023 1065.74,82.957L1067.08,82.703C1068.92,82.358 1070.78,82.185 1072.64,82.185L1330.47,82.185C1347.03,82.185 1360.47,95.627 1360.47,112.185C1360.47,128.742 1347.03,142.185 1330.47,142.185L1075.19,142.185Z" style="fill:rgb(255,238,0);"/>
                    </g>
                </g>
            </g>
            <g transform="matrix(0.693275,0,0,0.693275,106.077,-178.632)">
                <g transform="matrix(1.33268,0,0,1.41137,4.19459,-278.523)">
                    <g transform="matrix(0.849587,0,0,1.06283,67.0583,-343.109)">
                        <path d="M387.381,153.589C393.997,153.589 400.342,155.69 405.021,159.429C409.699,163.169 412.327,168.241 412.327,173.53L412.327,321.825C412.327,327.114 409.699,332.186 405.021,335.925C400.342,339.665 393.997,341.766 387.381,341.766L260.717,341.766C254.101,341.766 247.756,339.665 243.077,335.925C238.399,332.186 235.771,327.114 235.771,321.825C235.771,285.667 235.771,209.688 235.771,173.53C235.771,168.241 238.399,163.169 243.077,159.429C247.756,155.69 254.101,153.589 260.717,153.589L387.381,153.589Z" style="fill:rgb(70,167,88);"/>
                    </g>
                    <g transform="matrix(14.5893,0,0,14.5893,-9597.02,-3542.05)">
                        <g transform="matrix(12,0,0,12,684.561,241.617)">
                        </g>
                        <text x="677.889px" y="241.617px" style="font-family:'DINRoundPro-Black', 'DIN Round Pro', sans-serif;font-weight:900;font-size:12px;fill:white;">1</text>
                    </g>
                </g>
                <g transform="matrix(1.33268,0,0,1.41137,4.19459,-651.74)">
                    <g transform="matrix(0.849587,0,0,1.06283,67.0583,-343.109)">
                        <path d="M387.381,153.589C393.997,153.589 400.342,155.69 405.021,159.429C409.699,163.169 412.327,168.241 412.327,173.53L412.327,321.825C412.327,327.114 409.699,332.186 405.021,335.925C400.342,339.665 393.997,341.766 387.381,341.766L260.717,341.766C254.101,341.766 247.756,339.665 243.077,335.925C238.399,332.186 235.771,327.114 235.771,321.825L235.771,173.53C235.771,168.241 238.399,163.169 243.077,159.429C247.756,155.69 254.101,153.589 260.717,153.589L387.381,153.589Z" style="fill:rgb(0,162,199);"/>
                    </g>
                    <g transform="matrix(14.5893,0,0,14.5893,-9597.02,-3542.05)">
                        <g transform="matrix(12,0,0,12,684.561,241.617)">
                        </g>
                        <text x="677.889px" y="241.617px" style="font-family:'DINRoundPro-Black', 'DIN Round Pro', sans-serif;font-weight:900;font-size:12px;fill:white;">2</text>
                    </g>
                </g>
                <g transform="matrix(0.691625,0,0,0.732468,-30.1675,-932.388)">
                    <g transform="matrix(0.85775,0,0,0.85427,55.4667,50.1333)">
                        <path d="M281.6,41.173C281.6,41.173 421.76,63.147 411.093,263.147C411.093,263.893 427.307,274.773 428.587,275.947C440.424,286.211 449.086,299.647 453.547,314.667C468.373,369.387 415.467,425.813 372.693,440.747C356.642,446.236 339.84,449.222 322.88,449.6C212.907,452.8 67.2,382.72 59.733,245.867C58.698,215.232 64.188,184.725 75.84,156.373C75.84,156.48 137.067,4.373 281.6,41.173Z" style="fill:rgb(239,204,159);fill-rule:nonzero;"/>
                        <path d="M414.613,265.28C413.118,268.895 411.975,272.646 411.2,276.48C409.65,288.07 412.93,299.802 420.267,308.907C428.853,319.524 441.812,325.689 455.467,325.653C452.053,291.84 424.533,271.573 414.613,265.28ZM217.067,354.133C243.093,348.587 259.307,321.067 253.227,292.8C247.147,264.533 221.013,246.187 194.987,251.733C168.96,257.387 152.853,284.8 158.933,313.173C165.013,341.44 191.04,359.787 217.067,354.24L217.067,354.133Z" style="fill:rgb(220,36,0);fill-opacity:0.1;fill-rule:nonzero;"/>
                        <path d="M344.533,275.093C344.533,275.093 366.827,253.867 384,273.813L344.533,275.093Z" style="fill-opacity:0.1;fill-rule:nonzero;"/>
                        <path d="M137.28,380.693C63.253,417.813 -3.947,324.693 17.6,272.32C31.36,238.827 71.36,236.267 94.507,266.773C108.541,285.76 119.055,307.113 125.547,329.813" style="fill:rgb(239,204,159);fill-rule:nonzero;"/>
                        <path d="M76.267,297.6C85.867,307.2 93.44,321.6 102.933,329.6C101.12,316.267 98.347,301.867 91.84,289.813C85.227,277.44 73.173,267.413 60.907,268.16C45.76,269.227 33.28,286.933 31.68,302.933C32.747,293.333 51.947,286.933 59.307,287.787C70.827,309.547 75.307,352.427 75.307,352.427C84.907,328.213 81.067,309.013 76.373,297.493L76.267,297.6Z" style="fill-opacity:0.1;fill-rule:nonzero;"/>
                    </g>
                    <g transform="matrix(0.85472,0,0,0.855,20.2667,-18.1333)">
                        <path d="M338.133,409.6C338.133,407.259 340.059,405.333 342.4,405.333L440.533,405.333C442.874,405.333 444.8,407.259 444.8,409.6C444.8,411.941 442.874,413.867 440.533,413.867L342.4,413.867C340.059,413.867 338.133,411.941 338.133,409.6Z" style="fill:rgb(89,33,37);"/>
                    </g>
                    <g transform="matrix(0.85472,0,0,0.855,20.2667,-18.1333)">
                        <path d="M353.28,320.533C353.28,333.227 346.667,343.467 332.907,341.333C322.987,338.667 316.373,331.733 316.373,318.4C316.373,304.533 324.587,295.467 332.907,295.467C344.213,295.467 353.28,307.84 353.173,320.533L353.28,320.533ZM446.933,320.32C446.933,328.853 443.093,337.92 433.28,336.853C424.96,336 422.933,325.12 422.933,319.787C422.933,310.507 427.627,301.653 434.453,301.653C441.707,301.653 446.933,311.787 446.933,320.32Z" style="fill:rgb(42,18,0);fill-rule:nonzero;"/>
                        <path d="M359.467,260.48C345.697,253.91 329.55,254.468 316.267,261.973C312,264.427 309.227,270.187 311.467,275.093C313.493,279.573 318.933,282.453 323.413,279.893C324.8,279.04 326.187,278.4 327.68,277.76C328.107,277.547 329.28,277.333 329.707,277.013L330.347,276.8C332.619,276.206 334.939,275.813 337.28,275.627L339.307,275.627C341.568,275.702 343.818,275.988 346.027,276.48L348.16,277.12C349.547,277.547 350.933,278.187 352.427,278.827C356.693,280.96 362.667,277.973 364.267,273.173C366.08,267.84 363.947,262.72 359.36,260.48L359.467,260.48ZM451.733,265.067C443.84,260.8 434.667,259.733 426.56,262.187C424.427,262.827 422.293,264.747 421.44,266.88C420.373,269.013 420.373,272 421.227,274.347C422.125,276.761 423.869,278.771 426.133,280C428.298,281.136 430.818,281.404 433.173,280.747L434.347,280.427L438.187,280.427C439.68,280.533 441.173,280.96 442.667,281.493L444.16,282.133C446.293,283.307 449.067,283.627 451.307,282.88C453.44,282.24 455.573,280.427 456.427,278.187C457.28,276.053 457.6,273.28 456.64,270.827C455.573,268.373 454.08,266.347 451.733,265.067Z" style="fill:rgb(113,71,45);fill-rule:nonzero;"/>
                    </g>
                    <g transform="matrix(0.85472,0,0,0.85667,19.2,-16)">
                        <path d="M405.227,224C415.352,234.282 429.576,239.494 443.947,238.187C449.28,256.64 453.013,277.653 454.187,302.08C471.174,294.422 482.146,277.441 482.146,258.807C482.146,247.201 477.889,235.989 470.187,227.307C481.839,217.616 488.573,203.209 488.533,188.053C488.762,164.144 471.855,143.234 448.427,138.453C448.748,136.047 448.909,133.623 448.909,131.196C448.909,101.38 424.587,76.749 394.773,76.373C386.667,76.373 378.987,78.187 372.053,81.493C364.077,60.882 344.233,47.144 322.133,46.933C303.36,46.933 286.933,56.747 277.227,71.68C267.788,64.396 256.189,60.454 244.267,60.48C221.867,60.48 202.667,74.24 194.24,93.76C187.52,90.56 179.947,88.853 172.053,88.853C142.398,89.258 118.193,113.702 118.08,143.36C89.542,146.079 67.487,170.334 67.487,199.001C67.487,212.406 72.309,225.372 81.067,235.52C70.257,246.02 64.15,260.466 64.15,275.536C64.15,305.64 88.518,330.592 118.613,331.307C120.64,331.307 122.56,331.307 124.587,330.987C150.293,346.453 163.307,377.493 166.933,394.24C166.933,394.24 178.987,394.88 181.867,392.64C193.6,386.453 212.8,365.013 213.653,323.84C228.77,309.144 234.316,287.084 227.947,266.987C244.563,262.244 258.012,249.942 264.213,233.813C287.267,244.206 314.691,236.959 329.6,216.533C338.776,230.106 354.13,238.258 370.513,238.258C383.505,238.258 395.986,233.132 405.227,224Z" style="fill:rgb(213,108,12);fill-rule:nonzero;"/>
                    </g>
                    <g transform="matrix(0.85472,0,0,0.85667,14.9333,-12.8)">
                        <g>
                            <path d="M510.933,302.187L458.667,300.267L458.133,289.067L511.253,291.52L511.04,302.187L510.933,302.187Z" style="fill:rgb(137,99,7);"/>
                            <path d="M324.267,235.413C295.253,240 275.2,269.76 280.32,302.613C285.547,335.573 313.813,357.653 342.827,353.067C371.84,348.48 392,318.72 386.88,285.867C381.653,253.013 353.387,230.827 324.373,235.413L324.267,235.413ZM269.013,291.2C269.547,258.56 291.307,229.973 322.667,225.067C358.187,219.413 391.36,246.4 397.333,284.373L400.853,283.093C405.345,281.717 410.106,281.461 414.72,282.347C415.36,269.013 419.2,256.747 425.6,247.147C432.719,235.097 445.255,227.218 459.2,226.027C473.346,225.765 486.811,232.221 495.467,243.413C505.53,255.779 511.431,271.015 512.32,286.933C513.718,302.727 509.976,318.557 501.653,332.053C494.488,344.091 481.91,351.932 467.947,353.067C453.819,353.353 440.357,346.939 431.68,335.787C421.842,323.71 415.99,308.874 414.933,293.333C411.307,291.84 407.467,292.053 403.84,293.12C401.6,293.76 399.573,294.72 398.187,295.467C398.507,328.853 376.533,358.4 344.533,363.52C308.907,369.067 275.84,342.08 269.867,304.213C269.748,303.433 269.641,302.65 269.547,301.867L177.387,286.933C161.588,284.37 145.418,285.317 130.027,289.707C117.227,293.973 110.507,309.76 110.293,319.573L99.733,319.36C100.053,303.04 111.893,284.587 126.72,279.573C141.44,274.667 160.533,273.92 178.773,276.373L178.773,276.48L269.013,290.987L269.013,291.2ZM434.347,253.013C427.325,264.521 424.183,277.986 425.387,291.413C426.453,306.453 431.893,319.68 439.68,328.747C447.467,338.027 457.387,342.933 467.413,342.4C477.333,341.867 486.4,336 492.8,326.187C499.844,314.649 502.987,301.143 501.76,287.68C500.693,272.64 495.36,259.413 487.467,250.347C479.68,241.173 469.867,236.16 459.733,236.693C449.813,237.227 440.853,243.093 434.347,253.013Z" style="fill:rgb(197,144,15);"/>
                        </g>
                    </g>
                </g>
                <g transform="matrix(0.691625,0,0,0.732468,-27.9587,-578.89)">
                    <g transform="matrix(0.85775,0,0,0.85427,55.4667,50.1333)">
                        <path d="M281.6,41.173C281.6,41.173 421.76,63.147 411.093,263.147C411.093,263.893 427.307,274.773 428.587,275.947C440.424,286.211 449.086,299.647 453.547,314.667C468.373,369.387 415.467,425.813 372.693,440.747C356.642,446.236 339.84,449.222 322.88,449.6C212.907,452.8 67.2,382.72 59.733,245.867C58.698,215.232 64.188,184.725 75.84,156.373C75.84,156.48 137.067,4.373 281.6,41.173Z" style="fill:rgb(201,156,98);fill-rule:nonzero;"/>
                        <path d="M414.613,265.28C413.118,268.895 411.975,272.646 411.2,276.48C409.65,288.07 412.93,299.802 420.267,308.907C428.853,319.524 441.812,325.689 455.467,325.653C452.053,291.84 424.533,271.573 414.613,265.28ZM217.067,354.133C243.093,348.587 259.307,321.067 253.227,292.8C247.147,264.533 221.013,246.187 194.987,251.733C168.96,257.387 152.853,284.8 158.933,313.173C165.013,341.44 191.04,359.787 217.067,354.24L217.067,354.133Z" style="fill:rgb(220,36,0);fill-opacity:0.1;fill-rule:nonzero;"/>
                        <path d="M344.533,275.093C344.533,275.093 366.827,253.867 384,273.813L344.533,275.093Z" style="fill-opacity:0.1;fill-rule:nonzero;"/>
                        <path d="M137.28,380.693C63.253,417.813 -3.947,324.693 17.6,272.32C31.36,238.827 71.36,236.267 94.507,266.773C108.541,285.76 119.055,307.113 125.547,329.813" style="fill:rgb(201,156,98);fill-rule:nonzero;"/>
                        <path d="M76.267,297.6C85.867,307.2 93.44,321.6 102.933,329.6C101.12,316.267 98.347,301.867 91.84,289.813C85.227,277.44 73.173,267.413 60.907,268.16C45.76,269.227 33.28,286.933 31.68,302.933C32.747,293.333 51.947,286.933 59.307,287.787C70.827,309.547 75.307,352.427 75.307,352.427C84.907,328.213 81.067,309.013 76.373,297.493L76.267,297.6Z" style="fill-opacity:0.1;fill-rule:nonzero;"/>
                    </g>
                    <g transform="matrix(0.85472,0,0,0.855,20.2667,-18.1333)">
                        <path d="M338.133,409.6C338.133,407.259 340.059,405.333 342.4,405.333L440.533,405.333C442.874,405.333 444.8,407.259 444.8,409.6C444.8,411.941 442.874,413.867 440.533,413.867L342.4,413.867C340.059,413.867 338.133,411.941 338.133,409.6Z" style="fill:rgb(89,33,37);"/>
                    </g>
                    <g transform="matrix(0.85472,0,0,0.855,20.2667,-18.1333)">
                        <path d="M353.28,320.533C353.28,333.227 346.667,343.467 332.907,341.333C322.987,338.667 316.373,331.733 316.373,318.4C316.373,304.533 324.587,295.467 332.907,295.467C344.213,295.467 353.28,307.84 353.173,320.533L353.28,320.533ZM446.933,320.32C446.933,328.853 443.093,337.92 433.28,336.853C424.96,336 422.933,325.12 422.933,319.787C422.933,310.507 427.627,301.653 434.453,301.653C441.707,301.653 446.933,311.787 446.933,320.32Z" style="fill:rgb(42,18,0);fill-rule:nonzero;"/>
                        <path d="M359.467,260.48C345.697,253.91 329.55,254.468 316.267,261.973C312,264.427 309.227,270.187 311.467,275.093C313.493,279.573 318.933,282.453 323.413,279.893C324.8,279.04 326.187,278.4 327.68,277.76C328.107,277.547 329.28,277.333 329.707,277.013L330.347,276.8C332.619,276.206 334.939,275.813 337.28,275.627L339.307,275.627C341.568,275.702 343.818,275.988 346.027,276.48L348.16,277.12C349.547,277.547 350.933,278.187 352.427,278.827C356.693,280.96 362.667,277.973 364.267,273.173C366.08,267.84 363.947,262.72 359.36,260.48L359.467,260.48ZM451.733,265.067C443.84,260.8 434.667,259.733 426.56,262.187C424.427,262.827 422.293,264.747 421.44,266.88C420.373,269.013 420.373,272 421.227,274.347C422.125,276.761 423.869,278.771 426.133,280C428.298,281.136 430.818,281.404 433.173,280.747L434.347,280.427L438.187,280.427C439.68,280.533 441.173,280.96 442.667,281.493L444.16,282.133C446.293,283.307 449.067,283.627 451.307,282.88C453.44,282.24 455.573,280.427 456.427,278.187C457.28,276.053 457.6,273.28 456.64,270.827C455.573,268.373 454.08,266.347 451.733,265.067Z" style="fill:rgb(113,71,45);fill-rule:nonzero;"/>
                    </g>
                    <g transform="matrix(0.85472,0,0,0.85667,19.2,-16)">
                        <path d="M451.2,239.467C424.533,128.533 328,108.267 288.533,109.867C113.173,112 74.347,254.08 76.8,331.2C77.867,329.067 80,327.467 80,327.467C93.867,320 101.867,322.133 104.533,322.133C150.933,324.267 167.253,379.2 164.267,402.667C172.693,410.56 184.213,402.88 189.12,399.573L189.333,399.467C193.173,396.907 189.333,385.067 189.333,378.133C179.733,333.333 181.867,269.333 184.533,269.333C186.667,269.333 216,266.88 227.733,265.067C226.88,253.973 223.787,222.08 227.733,216.533C224.32,222.08 238.613,255.787 240,262.4C292.8,267.733 400.533,248.533 403.733,246.933C406.293,245.653 402.667,217.28 400.533,203.2C408.64,210.88 415.253,237.013 416.533,246.933C426.773,246.08 443.947,241.6 451.2,239.467Z" style="fill:rgb(35,141,128);fill-rule:nonzero;"/>
                        <path d="M301.867,126.933C326.72,128.747 384.427,144.213 416,192C403.52,166.08 363.307,116.693 301.867,126.933ZM353.067,178.133C360.533,187.733 375.68,213.973 376.533,242.133C381.867,230.72 384.64,202.027 353.067,178.133ZM140.8,267.733C145.92,210.56 183.467,168.533 201.6,154.667C133.333,176.853 118.4,249.92 119.467,283.733C120.32,241.067 144.747,204.8 156.8,192C145.707,211.627 141.547,250.667 140.8,267.733Z" style="fill-opacity:0.2;fill-rule:nonzero;"/>
                    </g>
                </g>
            </g>
        </g>
    </g>
</svg>
