<?xml version="1.0" encoding="UTF-8" standalone="no"?>
<!DOCTYPE svg PUBLIC "-//W3C//DTD SVG 1.1//EN" "http://www.w3.org/Graphics/SVG/1.1/DTD/svg11.dtd">
<svg width="100%" height="100%" viewBox="0 0 376 400" version="1.1" xmlns="http://www.w3.org/2000/svg" xmlns:xlink="http://www.w3.org/1999/xlink" xml:space="preserve" xmlns:serif="http://www.serif.com/" style="fill-rule:evenodd;clip-rule:evenodd;stroke-linejoin:round;stroke-miterlimit:2;">
    <g transform="matrix(1,0,0,1,-2015,0)">
        <g id="_5" serif:id="5" transform="matrix(0.612834,0,0,0.578662,2015.41,537.004)">
            <rect x="0" y="-928.01" width="611.911" height="691.25" style="fill:none;"/>
            <g transform="matrix(4.5628,0.796438,-0.752028,4.83225,-10201.2,-2556.34)">
                <g transform="matrix(142.983,0,0,142.983,2354.59,77.4323)">
                </g>
                <text x="2264.08px" y="77.432px" style="font-family:'DINRoundPro-Black', 'DIN Round Pro', sans-serif;font-weight:900;font-size:142.983px;fill:rgb(255,238,0);fill-opacity:0.25;">$</text>
            </g>
            <g>
                <g transform="matrix(1.40502,-0.259034,0.246355,1.49874,-2859.96,-461.558)">
                    <path d="M2053.48,200.256L2107.18,151.829C2110.67,148.687 2115.98,148.681 2119.47,151.815L2173.16,200L2173.16,290.256L2053.48,290.256L2053.48,200.256Z" style="fill:white;"/>
                </g>
                <g transform="matrix(1.40502,-0.259034,0.246355,1.49874,-2859.96,-461.558)">
                    <path d="M2045.79,191.847L2099.49,143.421L2102.6,141.106L2106.02,139.442L2109.62,138.444L2113.31,138.109L2117,138.435L2120.61,139.425L2124.03,141.081L2127.15,143.388L2180.84,191.573C2183.24,193.727 2184.6,196.788 2184.6,200L2184.6,290.256C2184.6,296.53 2179.48,301.616 2173.16,301.616L2053.48,301.616C2047.16,301.616 2042.04,296.53 2042.04,290.256L2042.04,200.256C2042.04,197.054 2043.4,194 2045.79,191.847ZM2053.48,200.256L2053.48,290.256L2173.16,290.256L2173.16,200L2119.47,151.815C2115.98,148.681 2110.67,148.687 2107.18,151.829L2053.48,200.256Z" style="fill:rgb(218,217,214);"/>
                </g>
                <g transform="matrix(0.717847,0.0103381,-0.00994691,0.957485,-68.5727,-931.466)">
                    <path d="M385.123,153.589C400.159,153.589 412.327,163.251 412.327,175.19C412.327,211.367 412.327,283.8 412.327,320.053C412.327,325.806 409.444,331.329 404.313,335.403C399.183,339.476 392.227,341.766 384.981,341.766C351.777,341.766 296.116,341.766 262.975,341.766C247.939,341.766 235.771,332.104 235.771,320.165C235.771,283.988 235.771,211.554 235.771,175.302C235.771,169.548 238.654,164.025 243.784,159.952C248.915,155.878 255.871,153.589 263.117,153.589C296.321,153.589 351.982,153.589 385.123,153.589Z" style="fill:rgb(70,167,88);"/>
                </g>
                <g transform="matrix(12.327,0.177528,-0.13654,13.1433,-8204.17,-3930.94)">
                    <g transform="matrix(12,0,0,12,684.561,241.617)">
                    </g>
                    <text x="677.889px" y="241.617px" style="font-family:'DINRoundPro-Black', 'DIN Round Pro', sans-serif;font-weight:900;font-size:12px;fill:white;">1</text>
                </g>
                <g transform="matrix(-1.40502,0.259034,-0.246355,-1.49874,3177.25,-956.139)">
                    <path d="M2173.16,200.256L2173.16,110.256L2053.48,110.512L2053.48,200.256L2113.32,146.293L2173.16,200.256Z" style="fill:white;"/>
                </g>
                <g transform="matrix(-1.40502,0.259034,-0.246355,-1.49874,3177.25,-956.139)">
                    <path d="M2165.47,208.665L2113.32,161.639L2061.18,208.665C2057.82,211.688 2052.99,212.463 2048.85,210.644C2044.71,208.824 2042.04,204.752 2042.04,200.256L2042.04,110.512C2042.04,104.248 2047.15,99.166 2053.46,99.153L2173.14,98.896C2176.18,98.89 2179.09,100.084 2181.24,102.215C2183.39,104.346 2184.6,107.239 2184.6,110.256L2184.6,200.256C2184.6,204.752 2181.93,208.824 2177.79,210.644C2173.65,212.463 2168.82,211.688 2165.47,208.665ZM2173.16,200.256L2173.16,110.256L2053.48,110.512L2053.48,200.256L2113.32,146.293L2173.16,200.256Z" style="fill:rgb(218,217,214);"/>
                </g>
                <g transform="matrix(1.40502,-0.259034,0.246355,1.49874,-2837.79,-326.671)">
                    <path d="M2053.48,200.256C2053.48,200.256 2091.92,165.593 2107.18,151.829C2110.67,148.687 2115.98,148.681 2119.47,151.815C2134.75,165.522 2173.16,200 2173.16,200" style="fill:white;"/>
                </g>
                <g transform="matrix(1.40502,-0.259034,0.246355,1.49874,-2837.79,-326.671)">
                    <path d="M2057.33,204.461C2054.99,206.568 2051.37,206.396 2049.25,204.075C2047.12,201.755 2047.3,198.159 2049.64,196.052L2103.34,147.625C2109,142.519 2117.64,142.509 2123.31,147.602L2177,195.787C2179.34,197.889 2179.52,201.483 2177.41,203.809C2175.29,206.134 2171.67,206.316 2169.33,204.213L2115.64,156.028C2114.33,154.853 2112.34,154.855 2111.03,156.034L2057.33,204.461Z" style="fill:rgb(218,217,214);"/>
                </g>
            </g>
            <g transform="matrix(-0.737049,-0.194325,-0.183489,0.780575,649.715,-617.549)">
                <g>
                    <g transform="matrix(0.85775,0,0,0.85427,55.4667,50.1333)">
                        <path d="M281.6,41.173C281.6,41.173 421.76,63.147 411.093,263.147C411.093,263.893 427.307,274.773 428.587,275.947C440.424,286.211 449.086,299.647 453.547,314.667C468.373,369.387 415.467,425.813 372.693,440.747C356.642,446.236 339.84,449.222 322.88,449.6C212.907,452.8 67.2,382.72 59.733,245.867C58.698,215.232 64.188,184.725 75.84,156.373C75.84,156.48 137.067,4.373 281.6,41.173Z" style="fill:rgb(201,156,98);fill-rule:nonzero;"/>
                        <path d="M414.613,265.28C413.118,268.895 411.975,272.646 411.2,276.48C409.65,288.07 412.93,299.802 420.267,308.907C428.853,319.524 441.812,325.689 455.467,325.653C452.053,291.84 424.533,271.573 414.613,265.28ZM217.067,354.133C243.093,348.587 259.307,321.067 253.227,292.8C247.147,264.533 221.013,246.187 194.987,251.733C168.96,257.387 152.853,284.8 158.933,313.173C165.013,341.44 191.04,359.787 217.067,354.24L217.067,354.133Z" style="fill:rgb(220,36,0);fill-opacity:0.1;fill-rule:nonzero;"/>
                        <path d="M344.533,275.093C344.533,275.093 366.827,253.867 384,273.813L344.533,275.093Z" style="fill-opacity:0.1;fill-rule:nonzero;"/>
                        <path d="M137.28,380.693C63.253,417.813 -3.947,324.693 17.6,272.32C31.36,238.827 71.36,236.267 94.507,266.773C108.541,285.76 119.055,307.113 125.547,329.813" style="fill:rgb(201,156,98);fill-rule:nonzero;"/>
                        <path d="M76.267,297.6C85.867,307.2 93.44,321.6 102.933,329.6C101.12,316.267 98.347,301.867 91.84,289.813C85.227,277.44 73.173,267.413 60.907,268.16C45.76,269.227 33.28,286.933 31.68,302.933C32.747,293.333 51.947,286.933 59.307,287.787C70.827,309.547 75.307,352.427 75.307,352.427C84.907,328.213 81.067,309.013 76.373,297.493L76.267,297.6Z" style="fill-opacity:0.1;fill-rule:nonzero;"/>
                    </g>
                    <g transform="matrix(0.85472,0,0,0.855,20.2667,-18.1333)">
                        <path d="M410.987,405.76C421.013,405.973 430.507,403.093 438.72,394.56C442.987,390.08 447.467,387.627 453.653,391.36C468.48,400.64 471.893,423.573 467.947,438.933C462.599,455.798 450.832,469.903 435.2,478.187C394.453,502.08 363.093,496.747 321.28,481.387C288.427,469.44 243.947,445.227 255.147,403.627C269.227,352.107 329.387,376.96 363.307,390.827C377.707,396.693 394.88,405.227 410.987,405.76Z" style="fill:white;fill-rule:nonzero;"/>
                        <path d="M370.133,494.08L363.733,493.227L387.947,400.747L394.027,402.773L370.24,494.08L370.133,494.08ZM455.36,461.867C453.649,463.847 451.833,465.734 449.92,467.52L436.053,397.12L438.827,394.56C439.68,393.6 440.64,392.747 441.6,392L455.36,461.973L455.36,461.867ZM316.587,374.827L282.027,461.867C280.208,460.608 278.429,459.292 276.693,457.92L310.187,373.653L316.587,374.827Z" style="fill:rgb(209,211,212);fill-rule:nonzero;"/>
                    </g>
                    <g transform="matrix(0.85472,0,0,0.855,20.2667,-18.1333)">
                        <path d="M320.32,329.813C329.813,329.6 339.2,333.013 347.52,338.027C352.987,331.746 355.059,323.178 353.067,315.093C350.507,302.293 340.48,293.76 330.773,295.893C321.173,298.027 315.413,310.293 318.08,323.093C318.613,325.547 319.36,327.68 320.32,329.813ZM443.84,331.307C445.227,328.213 445.973,324.48 445.973,320.427C445.76,310.293 440.32,302.08 433.813,302.08C427.307,302.08 422.08,310.4 422.293,320.64C422.4,326.187 424.213,331.2 426.773,334.507C432.107,332.373 437.973,331.307 443.84,331.307Z" style="fill:rgb(42,18,0);fill-rule:nonzero;"/>
                        <path d="M355.733,254.613C340.683,252.406 325.463,257.665 314.987,268.693C311.573,272.32 310.72,278.613 314.24,282.56C317.44,286.4 323.413,287.467 327.04,283.627L330.453,280.427C330.88,280.107 331.84,279.573 332.16,279.147L332.693,278.72C334.727,277.465 336.869,276.394 339.093,275.52C339.627,275.52 340.373,275.093 340.907,274.987C343.104,274.359 345.353,273.93 347.627,273.707L349.76,273.707L354.347,274.24C359.04,274.987 363.947,270.4 364.16,265.28C364.267,259.627 360.747,255.36 355.627,254.613L355.733,254.613ZM453.76,271.36C448.622,264.228 440.878,259.397 432.213,257.92C429.973,257.493 427.307,258.347 425.493,259.84C423.598,261.549 422.417,263.912 422.187,266.453C422.08,269.013 422.507,271.787 424.107,273.707C425.578,275.685 427.756,277.023 430.187,277.44L431.467,277.76C432.533,278.187 433.707,278.613 434.88,279.253C436.16,280.107 437.333,281.067 438.4,282.133L439.467,283.52C440.948,285.539 443.177,286.884 445.653,287.253C447.787,287.467 450.56,286.827 452.267,285.12C454.08,283.52 455.467,281.28 455.68,278.72C455.787,276.053 455.253,273.387 453.76,271.253L453.76,271.36Z" style="fill:rgb(113,71,45);fill-rule:nonzero;"/>
                    </g>
                    <g transform="matrix(0.85472,0,0,0.85667,19.2,-16)">
                        <path d="M451.2,239.467C424.533,128.533 328,108.267 288.533,109.867C113.173,112 74.347,254.08 76.8,331.2C77.867,329.067 80,327.467 80,327.467C93.867,320 101.867,322.133 104.533,322.133C150.933,324.267 167.253,379.2 164.267,402.667C172.693,410.56 184.213,402.88 189.12,399.573L189.333,399.467C193.173,396.907 189.333,385.067 189.333,378.133C179.733,333.333 181.867,269.333 184.533,269.333C186.667,269.333 216,266.88 227.733,265.067C226.88,253.973 223.787,222.08 227.733,216.533C224.32,222.08 238.613,255.787 240,262.4C292.8,267.733 400.533,248.533 403.733,246.933C406.293,245.653 402.667,217.28 400.533,203.2C408.64,210.88 415.253,237.013 416.533,246.933C426.773,246.08 443.947,241.6 451.2,239.467Z" style="fill:rgb(35,141,128);fill-rule:nonzero;"/>
                        <path d="M301.867,126.933C326.72,128.747 384.427,144.213 416,192C403.52,166.08 363.307,116.693 301.867,126.933ZM353.067,178.133C360.533,187.733 375.68,213.973 376.533,242.133C381.867,230.72 384.64,202.027 353.067,178.133ZM140.8,267.733C145.92,210.56 183.467,168.533 201.6,154.667C133.333,176.853 118.4,249.92 119.467,283.733C120.32,241.067 144.747,204.8 156.8,192C145.707,211.627 141.547,250.667 140.8,267.733Z" style="fill-opacity:0.2;fill-rule:nonzero;"/>
                    </g>
                </g>
            </g>
        </g>
    </g>
</svg>
