<?xml version="1.0" encoding="UTF-8" standalone="no"?>
<!DOCTYPE svg PUBLIC "-//W3C//DTD SVG 1.1//EN" "http://www.w3.org/Graphics/SVG/1.1/DTD/svg11.dtd">
<svg width="100%" height="100%" viewBox="0 0 376 400" version="1.1" xmlns="http://www.w3.org/2000/svg" xmlns:xlink="http://www.w3.org/1999/xlink" xml:space="preserve" xmlns:serif="http://www.serif.com/" style="fill-rule:evenodd;clip-rule:evenodd;stroke-linecap:round;stroke-linejoin:round;stroke-miterlimit:1.5;">
    <g transform="matrix(1,0,0,1,-2532,0)">
        <g id="_6" serif:id="6" transform="matrix(0.612834,0,0,0.578662,2532.82,537.004)">
            <rect x="0" y="-928.01" width="611.911" height="691.25" style="fill:none;"/>
            <g transform="matrix(1.47061,-0.748827,0.707072,1.55746,309.835,-488.906)">
                <path d="M132.084,0C132.084,-72.948 72.948,-132.084 -0,-132.084C-64.843,-132.084 -117.408,-79.519 -117.408,-14.676C-117.408,40.903 -72.352,85.959 -16.773,85.959C29.544,85.959 67.09,48.413 67.09,2.097C67.09,-34.956 37.053,-64.994 -0,-64.994C-27.79,-64.994 -50.318,-42.466 -50.318,-14.676C-50.318,3.85 -35.299,18.869 -16.773,18.869C-7.509,18.869 0,11.36 -0,2.097" style="fill:none;stroke:rgb(255,238,0);stroke-opacity:0.25;stroke-width:49px;"/>
            </g>
            <g transform="matrix(0.826043,0,0,0.874824,91.1315,-672.585)">
                <g>
                    <g transform="matrix(0.85775,0,0,0.85427,55.4667,50.1333)">
                        <path d="M281.6,41.173C281.6,41.173 421.76,63.147 411.093,263.147C411.093,263.893 427.307,274.773 428.587,275.947C440.424,286.211 449.086,299.647 453.547,314.667C468.373,369.387 415.467,425.813 372.693,440.747C356.642,446.236 339.84,449.222 322.88,449.6C212.907,452.8 67.2,382.72 59.733,245.867C58.698,215.232 64.188,184.725 75.84,156.373C75.84,156.48 137.067,4.373 281.6,41.173Z" style="fill:rgb(239,204,159);fill-rule:nonzero;"/>
                        <path d="M414.613,265.28C413.118,268.895 411.975,272.646 411.2,276.48C409.65,288.07 412.93,299.802 420.267,308.907C428.853,319.524 441.812,325.689 455.467,325.653C452.053,291.84 424.533,271.573 414.613,265.28ZM217.067,354.133C243.093,348.587 259.307,321.067 253.227,292.8C247.147,264.533 221.013,246.187 194.987,251.733C168.96,257.387 152.853,284.8 158.933,313.173C165.013,341.44 191.04,359.787 217.067,354.24L217.067,354.133Z" style="fill:rgb(220,36,0);fill-opacity:0.1;fill-rule:nonzero;"/>
                        <path d="M344.533,275.093C344.533,275.093 366.827,253.867 384,273.813L344.533,275.093Z" style="fill-opacity:0.1;fill-rule:nonzero;"/>
                        <path d="M137.28,380.693C63.253,417.813 -3.947,324.693 17.6,272.32C31.36,238.827 71.36,236.267 94.507,266.773C108.541,285.76 119.055,307.113 125.547,329.813" style="fill:rgb(239,204,159);fill-rule:nonzero;"/>
                        <path d="M76.267,297.6C85.867,307.2 93.44,321.6 102.933,329.6C101.12,316.267 98.347,301.867 91.84,289.813C85.227,277.44 73.173,267.413 60.907,268.16C45.76,269.227 33.28,286.933 31.68,302.933C32.747,293.333 51.947,286.933 59.307,287.787C70.827,309.547 75.307,352.427 75.307,352.427C84.907,328.213 81.067,309.013 76.373,297.493L76.267,297.6Z" style="fill-opacity:0.1;fill-rule:nonzero;"/>
                    </g>
                    <g transform="matrix(0.85472,0,0,0.855,20.2667,-18.1333)">
                        <path d="M375.147,381.653C413.227,384.107 436.8,381.653 444.48,381.653C476.48,376.853 490.027,433.28 449.813,462.933C437.867,471.787 432,470.4 406.4,470.4C380.8,470.4 353.067,480 337.6,475.627C293.76,463.253 286.08,431.467 289.92,413.973C295.253,390.4 306.133,377.28 375.253,381.653L375.147,381.653Z" style="fill:white;fill-rule:nonzero;"/>
                        <path d="M394.773,470.933L388.373,471.68L391.893,382.507L398.293,382.613L394.773,470.933ZM463.04,450.027C461.44,452.16 459.627,454.293 457.6,456.32L445.867,381.44C448,381.227 450.133,381.44 452.267,381.76L463.04,450.027ZM327.253,382.187L313.813,465.067C311.68,463.68 309.76,462.293 308.053,460.8L320.533,383.467C322.667,382.933 324.8,382.613 327.253,382.187Z" style="fill:rgb(209,211,212);fill-rule:nonzero;"/>
                    </g>
                    <g transform="matrix(0.85472,0,0,0.855,20.2667,-18.1333)">
                        <path d="M352.213,320.533C352.213,333.227 345.6,343.467 331.84,341.333C321.92,338.667 315.307,331.733 315.307,318.4C315.307,304.533 323.52,295.467 331.84,295.467C343.147,295.467 352.213,307.84 352.107,320.533L352.213,320.533ZM422.827,312.533C428.8,312.853 437.12,312.213 442.773,308.373C444.693,311.893 445.973,316.267 445.973,320.32C445.867,328.853 442.027,337.92 432.107,336.853C423.893,336 421.867,325.12 421.867,319.787C421.867,317.227 422.187,314.773 422.827,312.533Z" style="fill:rgb(42,18,0);fill-rule:nonzero;"/>
                        <path d="M354.133,253.973C339.007,252.318 323.986,258.135 313.92,269.547C310.72,273.173 309.867,279.573 313.6,283.413C317.013,287.04 322.987,288 326.4,284.053C327.467,282.88 328.533,281.707 329.707,280.747L331.413,279.36L331.947,278.933C333.905,277.616 335.975,276.474 338.133,275.52L340.053,274.88C342.072,274.241 344.142,273.777 346.24,273.493L346.773,273.493L348.907,273.387L353.493,273.707C358.187,274.347 362.88,269.44 362.88,264.427C362.88,258.773 359.253,254.613 354.133,253.973ZM447.467,294.4C439.573,298.773 430.4,299.733 422.293,297.387C420.16,296.747 418.027,294.827 417.067,292.693C416.213,290.56 416,287.573 416.853,285.227C417.752,282.812 419.496,280.803 421.76,279.573C423.955,278.409 426.518,278.141 428.907,278.827L429.973,279.147L433.813,279.147C435.307,279.04 436.8,278.613 438.293,278.08L439.893,277.44C442.027,276.267 444.8,275.947 446.933,276.693C449.067,277.333 451.2,279.147 452.16,281.387C453.013,283.52 453.227,286.293 452.373,288.747C451.307,291.2 449.707,293.227 447.467,294.507L447.467,294.4Z" style="fill:rgb(113,71,45);fill-rule:nonzero;"/>
                    </g>
                    <g transform="matrix(0.85472,0,0,0.85667,19.2,-16)">
                        <path d="M405.227,224C415.352,234.282 429.576,239.494 443.947,238.187C449.28,256.64 453.013,277.653 454.187,302.08C471.174,294.422 482.146,277.441 482.146,258.807C482.146,247.201 477.889,235.989 470.187,227.307C481.839,217.616 488.573,203.209 488.533,188.053C488.762,164.144 471.855,143.234 448.427,138.453C448.748,136.047 448.909,133.623 448.909,131.196C448.909,101.38 424.587,76.749 394.773,76.373C386.667,76.373 378.987,78.187 372.053,81.493C364.077,60.882 344.233,47.144 322.133,46.933C303.36,46.933 286.933,56.747 277.227,71.68C267.788,64.396 256.189,60.454 244.267,60.48C221.867,60.48 202.667,74.24 194.24,93.76C187.52,90.56 179.947,88.853 172.053,88.853C142.398,89.258 118.193,113.702 118.08,143.36C89.542,146.079 67.487,170.334 67.487,199.001C67.487,212.406 72.309,225.372 81.067,235.52C70.257,246.02 64.15,260.466 64.15,275.536C64.15,305.64 88.518,330.592 118.613,331.307C120.64,331.307 122.56,331.307 124.587,330.987C150.293,346.453 163.307,377.493 166.933,394.24C166.933,394.24 178.987,394.88 181.867,392.64C193.6,386.453 212.8,365.013 213.653,323.84C228.77,309.144 234.316,287.084 227.947,266.987C244.563,262.244 258.012,249.942 264.213,233.813C287.267,244.206 314.691,236.959 329.6,216.533C338.776,230.106 354.13,238.258 370.513,238.258C383.505,238.258 395.986,233.132 405.227,224Z" style="fill:rgb(213,108,12);fill-rule:nonzero;"/>
                    </g>
                    <g transform="matrix(0.85472,0,0,0.85667,14.9333,-12.8)">
                        <g>
                            <path d="M510.933,302.187L458.667,300.267L458.133,289.067L511.253,291.52L511.04,302.187L510.933,302.187Z" style="fill:rgb(137,99,7);"/>
                            <path d="M324.267,235.413C295.253,240 275.2,269.76 280.32,302.613C285.547,335.573 313.813,357.653 342.827,353.067C371.84,348.48 392,318.72 386.88,285.867C381.653,253.013 353.387,230.827 324.373,235.413L324.267,235.413ZM269.013,291.2C269.547,258.56 291.307,229.973 322.667,225.067C358.187,219.413 391.36,246.4 397.333,284.373L400.853,283.093C405.345,281.717 410.106,281.461 414.72,282.347C415.36,269.013 419.2,256.747 425.6,247.147C432.719,235.097 445.255,227.218 459.2,226.027C473.346,225.765 486.811,232.221 495.467,243.413C505.53,255.779 511.431,271.015 512.32,286.933C513.718,302.727 509.976,318.557 501.653,332.053C494.488,344.091 481.91,351.932 467.947,353.067C453.819,353.353 440.357,346.939 431.68,335.787C421.842,323.71 415.99,308.874 414.933,293.333C411.307,291.84 407.467,292.053 403.84,293.12C401.6,293.76 399.573,294.72 398.187,295.467C398.507,328.853 376.533,358.4 344.533,363.52C308.907,369.067 275.84,342.08 269.867,304.213C269.748,303.433 269.641,302.65 269.547,301.867L177.387,286.933C161.588,284.37 145.418,285.317 130.027,289.707C117.227,293.973 110.507,309.76 110.293,319.573L99.733,319.36C100.053,303.04 111.893,284.587 126.72,279.573C141.44,274.667 160.533,273.92 178.773,276.373L178.773,276.48L269.013,290.987L269.013,291.2ZM434.347,253.013C427.325,264.521 424.183,277.986 425.387,291.413C426.453,306.453 431.893,319.68 439.68,328.747C447.467,338.027 457.387,342.933 467.413,342.4C477.333,341.867 486.4,336 492.8,326.187C499.844,314.649 502.987,301.143 501.76,287.68C500.693,272.64 495.36,259.413 487.467,250.347C479.68,241.173 469.867,236.16 459.733,236.693C449.813,237.227 440.853,243.093 434.347,253.013Z" style="fill:rgb(197,144,15);"/>
                        </g>
                    </g>
                </g>
                <g transform="matrix(0.961165,-0.159094,0.159094,0.961165,-100.657,16.4604)">
                    <g transform="matrix(0.849587,0,0,1.06283,67.0583,-343.109)">
                        <path d="M383.688,153.589C391.283,153.589 398.568,156.001 403.939,160.294C409.31,164.587 412.327,170.41 412.327,176.482C412.327,212.669 412.327,282.685 412.327,318.873C412.327,324.944 409.31,330.767 403.939,335.061C398.568,339.354 391.283,341.766 383.688,341.766C350.83,341.766 297.267,341.766 264.41,341.766C256.814,341.766 249.53,339.354 244.159,335.061C238.788,330.767 235.771,324.944 235.771,318.873L235.771,176.482C235.771,170.41 238.788,164.587 244.159,160.294C249.53,156.001 256.814,153.589 264.41,153.589L383.688,153.589Z" style="fill:rgb(233,61,130);"/>
                    </g>
                    <g transform="matrix(14.5893,0,0,14.5893,-9597.68,-3542.58)">
                        <g transform="matrix(12,0,0,12,684.453,241.617)">
                        </g>
                        <text x="677.997px" y="241.617px" style="font-family:'DINRoundPro-Black', 'DIN Round Pro', sans-serif;font-weight:900;font-size:12px;fill:white;">?</text>
                    </g>
                </g>
            </g>
        </g>
    </g>
</svg>
