<?xml version="1.0" encoding="UTF-8" standalone="no"?>
<!DOCTYPE svg PUBLIC "-//W3C//DTD SVG 1.1//EN" "http://www.w3.org/Graphics/SVG/1.1/DTD/svg11.dtd">
<svg width="100%" height="100%" viewBox="0 0 375 400" version="1.1" xmlns="http://www.w3.org/2000/svg" xmlns:xlink="http://www.w3.org/1999/xlink" xml:space="preserve" xmlns:serif="http://www.serif.com/" style="fill-rule:evenodd;clip-rule:evenodd;stroke-linecap:round;stroke-linejoin:round;stroke-miterlimit:1.5;">
    <g id="_1" serif:id="1" transform="matrix(0.612834,0,0,0.578662,0,537.004)">
        <rect x="0" y="-928.01" width="611.911" height="691.25" style="fill:none;"/>
        <g transform="matrix(1.63176,0,0,1.72813,-35.7087,-1655.4)">
            <path d="M323.459,516.915C323.459,516.915 78.162,464.22 72.498,537.431C66.834,610.642 296.176,526.259 301.575,607.657C306.975,689.056 92.787,581.079 95.576,658.267C98.365,735.454 274.443,670.853 271.303,717.438C268.162,764.024 187.5,763.376 187.5,763.376" style="fill:none;stroke:rgb(255,238,0);stroke-opacity:0.25;stroke-width:50px;"/>
        </g>
        <g transform="matrix(0.643891,0,0,0.643891,5.86636,-207.393)">
            <g transform="matrix(1.23604,0.527655,-0.498233,1.30903,158.816,-836.492)">
                <g transform="matrix(0.849587,0,0,1.06283,67.0583,-343.109)">
                    <path d="M385.468,153.589C392.591,153.589 399.423,155.851 404.46,159.877C409.497,163.904 412.327,169.365 412.327,175.059C412.327,211.273 412.327,284.081 412.327,320.295C412.327,325.99 409.497,331.451 404.46,335.477C399.423,339.504 392.591,341.766 385.468,341.766C352.208,341.766 295.89,341.766 262.63,341.766C255.506,341.766 248.675,339.504 243.638,335.477C238.601,331.451 235.771,325.99 235.771,320.295C235.771,284.081 235.771,211.273 235.771,175.059C235.771,169.365 238.601,163.904 243.638,159.877C248.675,155.851 255.506,153.589 262.63,153.589C295.89,153.589 352.208,153.589 385.468,153.589Z" style="fill:rgb(233,61,130);"/>
                </g>
                <g transform="matrix(14.5893,0,0,14.5893,-9597.68,-3542.58)">
                    <g transform="matrix(12,0,0,12,684.561,241.617)">
                    </g>
                    <text x="677.889px" y="241.617px" style="font-family:'DINRoundPro-Black', 'DIN Round Pro', sans-serif;font-weight:900;font-size:12px;fill:white;">3</text>
                </g>
            </g>
            <g transform="matrix(1.33268,0,0,1.41137,15.3549,-788.803)">
                <g transform="matrix(0.849587,0,0,1.06283,67.0583,-343.109)">
                    <path d="M385.468,153.589C392.591,153.589 399.423,155.851 404.46,159.877C409.497,163.904 412.327,169.365 412.327,175.059C412.327,211.273 412.327,284.081 412.327,320.295C412.327,325.99 409.497,331.451 404.46,335.477C399.423,339.504 392.591,341.766 385.468,341.766C352.208,341.766 295.89,341.766 262.63,341.766C255.506,341.766 248.675,339.504 243.638,335.477C238.601,331.451 235.771,325.99 235.771,320.295C235.771,284.081 235.771,211.273 235.771,175.059C235.771,169.365 238.601,163.904 243.638,159.877C248.675,155.851 255.506,153.589 262.63,153.589C295.89,153.589 352.208,153.589 385.468,153.589Z" style="fill:rgb(0,162,199);"/>
                </g>
                <g transform="matrix(14.5893,0,0,14.5893,-9597.02,-3542.05)">
                    <g transform="matrix(12,0,0,12,684.561,241.617)">
                    </g>
                    <text x="677.889px" y="241.617px" style="font-family:'DINRoundPro-Black', 'DIN Round Pro', sans-serif;font-weight:900;font-size:12px;fill:white;">2</text>
                </g>
            </g>
            <g transform="matrix(1.12235,0,0,1.18863,151.93,-638.326)">
                <g transform="matrix(0.85775,0,0,0.85427,55.4667,50.1333)">
                    <path d="M281.6,41.173C281.6,41.173 421.76,63.147 411.093,263.147C411.093,263.893 427.307,274.773 428.587,275.947C440.424,286.211 449.086,299.647 453.547,314.667C468.373,369.387 415.467,425.813 372.693,440.747C356.642,446.236 339.84,449.222 322.88,449.6C212.907,452.8 67.2,382.72 59.733,245.867C58.698,215.232 64.188,184.725 75.84,156.373C75.84,156.48 137.067,4.373 281.6,41.173Z" style="fill:rgb(239,204,159);fill-rule:nonzero;"/>
                    <path d="M414.613,265.28C413.118,268.895 411.975,272.646 411.2,276.48C409.65,288.07 412.93,299.802 420.267,308.907C428.853,319.524 441.812,325.689 455.467,325.653C452.053,291.84 424.533,271.573 414.613,265.28ZM217.067,354.133C243.093,348.587 259.307,321.067 253.227,292.8C247.147,264.533 221.013,246.187 194.987,251.733C168.96,257.387 152.853,284.8 158.933,313.173C165.013,341.44 191.04,359.787 217.067,354.24L217.067,354.133Z" style="fill:rgb(220,36,0);fill-opacity:0.1;fill-rule:nonzero;"/>
                    <path d="M344.533,275.093C344.533,275.093 366.827,253.867 384,273.813L344.533,275.093Z" style="fill-opacity:0.1;fill-rule:nonzero;"/>
                    <path d="M137.28,380.693C63.253,417.813 -3.947,324.693 17.6,272.32C31.36,238.827 71.36,236.267 94.507,266.773C108.541,285.76 119.055,307.113 125.547,329.813" style="fill:rgb(239,204,159);fill-rule:nonzero;"/>
                    <path d="M76.267,297.6C85.867,307.2 93.44,321.6 102.933,329.6C101.12,316.267 98.347,301.867 91.84,289.813C85.227,277.44 73.173,267.413 60.907,268.16C45.76,269.227 33.28,286.933 31.68,302.933C32.747,293.333 51.947,286.933 59.307,287.787C70.827,309.547 75.307,352.427 75.307,352.427C84.907,328.213 81.067,309.013 76.373,297.493L76.267,297.6Z" style="fill-opacity:0.1;fill-rule:nonzero;"/>
                </g>
                <g transform="matrix(0.85472,0,0,0.855,20.2667,-18.1333)">
                    <path d="M419.52,391.467C422.72,393.28 445.227,365.013 460.267,373.653C465.28,376.533 469.12,381.44 472,386.773C478.4,398.507 480.533,412.8 478.08,426.027C473.881,444.136 462.777,459.91 447.147,469.973C407.253,497.173 375.68,492.053 333.227,476.373C299.733,463.893 254.293,438.4 263.68,392.427C280.32,311.36 419.52,391.36 419.52,391.36L419.52,391.467Z" style="fill:rgb(135,60,65);fill-rule:nonzero;"/>
                    <path d="M304.32,386.133C315.2,392.96 328.32,393.6 340.16,390.933C342.4,390.4 344.213,392.32 344.747,394.56C350.507,416.96 383.147,428.693 399.68,414.293C400.96,413.227 403.2,412.907 404.48,414.187C413.333,422.507 427.52,424.853 437.973,419.093C452.693,411.093 452.587,388.587 448.64,372.907C435.627,376.853 421.973,392.853 419.52,391.36C419.52,391.36 334.08,342.293 289.067,360C289.599,370.692 295.292,380.486 304.32,386.24L304.32,386.133Z" style="fill:white;fill-rule:nonzero;"/>
                    <path d="M426.987,473.387C403.52,451.947 374.827,439.893 345.707,431.467C320.747,424.107 292.693,419.413 267.413,426.667C279.147,451.733 309.227,467.413 333.227,476.373C370.347,490.133 399.147,495.787 432.427,478.72C430.613,476.907 428.907,475.093 426.987,473.387Z" style="fill:rgb(238,126,139);fill-rule:nonzero;"/>
                </g>
                <g transform="matrix(0.85472,0,0,0.855,20.2667,-18.1333)">
                    <path d="M363.627,308.373C350.343,317.975 333.225,320.636 317.653,315.52C317.44,315.52 317.227,315.733 317.44,315.947C340.373,342.08 357.76,322.453 363.947,308.693C363.947,308.48 363.733,308.267 363.627,308.373ZM422.4,315.733C428.031,322.505 437.652,324.545 445.547,320.64C445.76,320.533 445.973,320.747 445.867,320.96C433.6,341.12 425.067,326.613 421.973,316.053C421.973,315.84 422.187,315.627 422.4,315.84L422.4,315.733Z" style="fill:rgb(42,18,0);fill-rule:nonzero;"/>
                    <path d="M359.467,260.48C345.697,253.91 329.55,254.468 316.267,261.973C312,264.427 309.227,270.187 311.467,275.093C313.493,279.573 318.933,282.453 323.413,279.893C324.8,279.04 326.187,278.4 327.68,277.76C328.107,277.547 329.28,277.333 329.707,277.013L330.347,276.8C332.619,276.206 334.939,275.813 337.28,275.627L339.307,275.627C341.568,275.702 343.818,275.988 346.027,276.48L348.16,277.12C349.547,277.547 350.933,278.187 352.427,278.827C356.693,280.96 362.667,277.973 364.267,273.173C366.08,267.84 363.947,262.72 359.36,260.48L359.467,260.48ZM451.733,265.067C443.84,260.8 434.667,259.733 426.56,262.187C424.427,262.827 422.293,264.747 421.44,266.88C420.373,269.013 420.373,272 421.227,274.347C422.125,276.761 423.869,278.771 426.133,280C428.298,281.136 430.818,281.404 433.173,280.747L434.347,280.427L438.187,280.427C439.68,280.533 441.173,280.96 442.667,281.493L444.16,282.133C446.293,283.307 449.067,283.627 451.307,282.88C453.44,282.24 455.573,280.427 456.427,278.187C457.28,276.053 457.6,273.28 456.64,270.827C455.573,268.373 454.08,266.347 451.733,265.067Z" style="fill:rgb(113,71,45);fill-rule:nonzero;"/>
                </g>
                <g transform="matrix(0.85472,0,0,0.85667,19.2,-16)">
                    <path d="M405.227,224C415.352,234.282 429.576,239.494 443.947,238.187C449.28,256.64 453.013,277.653 454.187,302.08C471.174,294.422 482.146,277.441 482.146,258.807C482.146,247.201 477.889,235.989 470.187,227.307C481.839,217.616 488.573,203.209 488.533,188.053C488.762,164.144 471.855,143.234 448.427,138.453C448.748,136.047 448.909,133.623 448.909,131.196C448.909,101.38 424.587,76.749 394.773,76.373C386.667,76.373 378.987,78.187 372.053,81.493C364.077,60.882 344.233,47.144 322.133,46.933C303.36,46.933 286.933,56.747 277.227,71.68C267.788,64.396 256.189,60.454 244.267,60.48C221.867,60.48 202.667,74.24 194.24,93.76C187.52,90.56 179.947,88.853 172.053,88.853C142.398,89.258 118.193,113.702 118.08,143.36C89.542,146.079 67.487,170.334 67.487,199.001C67.487,212.406 72.309,225.372 81.067,235.52C70.257,246.02 64.15,260.466 64.15,275.536C64.15,305.64 88.518,330.592 118.613,331.307C120.64,331.307 122.56,331.307 124.587,330.987C150.293,346.453 163.307,377.493 166.933,394.24C166.933,394.24 178.987,394.88 181.867,392.64C193.6,386.453 212.8,365.013 213.653,323.84C228.77,309.144 234.316,287.084 227.947,266.987C244.563,262.244 258.012,249.942 264.213,233.813C287.267,244.206 314.691,236.959 329.6,216.533C338.776,230.106 354.13,238.258 370.513,238.258C383.505,238.258 395.986,233.132 405.227,224Z" style="fill:rgb(213,108,12);fill-rule:nonzero;"/>
                </g>
                <g transform="matrix(0.85472,0,0,0.85667,14.9333,-12.8)">
                    <g>
                        <path d="M510.933,302.187L458.667,300.267L458.133,289.067L511.253,291.52L511.04,302.187L510.933,302.187Z" style="fill:rgb(137,99,7);"/>
                        <path d="M324.267,235.413C295.253,240 275.2,269.76 280.32,302.613C285.547,335.573 313.813,357.653 342.827,353.067C371.84,348.48 392,318.72 386.88,285.867C381.653,253.013 353.387,230.827 324.373,235.413L324.267,235.413ZM269.013,291.2C269.547,258.56 291.307,229.973 322.667,225.067C358.187,219.413 391.36,246.4 397.333,284.373L400.853,283.093C405.345,281.717 410.106,281.461 414.72,282.347C415.36,269.013 419.2,256.747 425.6,247.147C432.719,235.097 445.255,227.218 459.2,226.027C473.346,225.765 486.811,232.221 495.467,243.413C505.53,255.779 511.431,271.015 512.32,286.933C513.718,302.727 509.976,318.557 501.653,332.053C494.488,344.091 481.91,351.932 467.947,353.067C453.819,353.353 440.357,346.939 431.68,335.787C421.842,323.71 415.99,308.874 414.933,293.333C411.307,291.84 407.467,292.053 403.84,293.12C401.6,293.76 399.573,294.72 398.187,295.467C398.507,328.853 376.533,358.4 344.533,363.52C308.907,369.067 275.84,342.08 269.867,304.213C269.748,303.433 269.641,302.65 269.547,301.867L177.387,286.933C161.588,284.37 145.418,285.317 130.027,289.707C117.227,293.973 110.507,309.76 110.293,319.573L99.733,319.36C100.053,303.04 111.893,284.587 126.72,279.573C141.44,274.667 160.533,273.92 178.773,276.373L178.773,276.48L269.013,290.987L269.013,291.2ZM434.347,253.013C427.325,264.521 424.183,277.986 425.387,291.413C426.453,306.453 431.893,319.68 439.68,328.747C447.467,338.027 457.387,342.933 467.413,342.4C477.333,341.867 486.4,336 492.8,326.187C499.844,314.649 502.987,301.143 501.76,287.68C500.693,272.64 495.36,259.413 487.467,250.347C479.68,241.173 469.867,236.16 459.733,236.693C449.813,237.227 440.853,243.093 434.347,253.013Z" style="fill:rgb(197,144,15);"/>
                    </g>
                </g>
            </g>
            <g transform="matrix(1.27332,-0.416535,0.393309,1.34851,-100.354,-544.623)">
                <g transform="matrix(0.849587,0,0,1.06283,67.0583,-343.109)">
                    <path d="M385.468,153.589C392.591,153.589 399.423,155.851 404.46,159.877C409.497,163.904 412.327,169.365 412.327,175.059C412.327,211.273 412.327,284.081 412.327,320.295C412.327,325.99 409.497,331.451 404.46,335.477C399.423,339.504 392.591,341.766 385.468,341.766C352.208,341.766 295.89,341.766 262.63,341.766C255.506,341.766 248.675,339.504 243.638,335.477C238.601,331.451 235.771,325.99 235.771,320.295C235.771,284.081 235.771,211.273 235.771,175.059C235.771,169.365 238.601,163.904 243.638,159.877C248.675,155.851 255.506,153.589 262.63,153.589C295.89,153.589 352.208,153.589 385.468,153.589Z" style="fill:rgb(70,167,88);"/>
                </g>
                <g transform="matrix(14.5893,0,0,14.5893,-9587.08,-3542.58)">
                    <g transform="matrix(12,0,0,12,684.561,241.617)">
                    </g>
                    <text x="677.889px" y="241.617px" style="font-family:'DINRoundPro-Black', 'DIN Round Pro', sans-serif;font-weight:900;font-size:12px;fill:white;">1</text>
                </g>
            </g>
        </g>
    </g>
</svg>
