<?xml version="1.0" encoding="UTF-8" standalone="no"?>
<!DOCTYPE svg PUBLIC "-//W3C//DTD SVG 1.1//EN" "http://www.w3.org/Graphics/SVG/1.1/DTD/svg11.dtd">
<svg width="100%" height="100%" viewBox="0 0 376 400" version="1.1" xmlns="http://www.w3.org/2000/svg" xmlns:xlink="http://www.w3.org/1999/xlink" xml:space="preserve" xmlns:serif="http://www.serif.com/" style="fill-rule:evenodd;clip-rule:evenodd;stroke-linejoin:round;stroke-miterlimit:2;">
    <g transform="matrix(1,0,0,1,-1521,0)">
        <g id="_5" serif:id="5" transform="matrix(0.612834,0,0,0.578662,1521.44,537.004)">
            <rect x="0" y="-928.01" width="611.911" height="691.25" style="fill:none;"/>
            <g transform="matrix(1.59818,-0.348781,0.329333,1.69256,-2525.69,-263.053)">
                <path d="M1757.48,33.375C1757.48,33.375 1783.76,114.25 1783.76,114.25L1868.8,114.25C1879.41,114.25 1888.82,121.085 1892.1,131.179C1895.38,141.274 1891.79,152.332 1883.2,158.571C1883.2,158.571 1814.4,208.554 1814.4,208.554L1840.68,289.429C1843.96,299.524 1840.37,310.582 1831.78,316.821C1823.19,323.06 1811.57,323.06 1802.98,316.821C1802.98,316.821 1734.18,266.838 1734.18,266.838L1665.38,316.821C1656.8,323.06 1645.17,323.06 1636.58,316.821C1628,310.582 1624.4,299.524 1627.68,289.429C1627.68,289.429 1653.96,208.554 1653.96,208.554L1585.16,158.571C1576.58,152.332 1572.99,141.274 1576.27,131.179C1579.55,121.085 1588.95,114.25 1599.57,114.25C1599.57,114.25 1684.6,114.25 1684.6,114.25L1710.88,33.375C1714.16,23.281 1723.57,16.446 1734.18,16.446C1744.8,16.446 1754.2,23.281 1757.48,33.375Z" style="fill:rgb(255,238,0);fill-opacity:0.25;"/>
            </g>
            <g transform="matrix(1.07334,0,0,1.13673,-178.517,-789.131)">
                <g>
                    <g transform="matrix(0.521209,0,0,0.519094,201.398,132.029)">
                        <path d="M281.6,41.173C281.6,41.173 421.76,63.147 411.093,263.147C411.093,263.893 427.307,274.773 428.587,275.947C440.424,286.211 449.086,299.647 453.547,314.667C468.373,369.387 415.467,425.813 372.693,440.747C356.642,446.236 339.84,449.222 322.88,449.6C212.907,452.8 67.2,382.72 59.733,245.867C58.698,215.232 64.188,184.725 75.84,156.373C75.84,156.48 137.067,4.373 281.6,41.173Z" style="fill:rgb(201,156,98);fill-rule:nonzero;"/>
                        <path d="M414.613,265.28C413.118,268.895 411.975,272.646 411.2,276.48C409.65,288.07 412.93,299.802 420.267,308.907C428.853,319.524 441.812,325.689 455.467,325.653C452.053,291.84 424.533,271.573 414.613,265.28ZM217.067,354.133C243.093,348.587 259.307,321.067 253.227,292.8C247.147,264.533 221.013,246.187 194.987,251.733C168.96,257.387 152.853,284.8 158.933,313.173C165.013,341.44 191.04,359.787 217.067,354.24L217.067,354.133Z" style="fill:rgb(220,36,0);fill-opacity:0.1;fill-rule:nonzero;"/>
                        <path d="M344.533,275.093C344.533,275.093 366.827,253.867 384,273.813L344.533,275.093Z" style="fill-opacity:0.1;fill-rule:nonzero;"/>
                        <path d="M137.28,380.693C63.253,417.813 -3.947,324.693 17.6,272.32C31.36,238.827 71.36,236.267 94.507,266.773C108.541,285.76 119.055,307.113 125.547,329.813" style="fill:rgb(201,156,98);fill-rule:nonzero;"/>
                        <path d="M76.267,297.6C85.867,307.2 93.44,321.6 102.933,329.6C101.12,316.267 98.347,301.867 91.84,289.813C85.227,277.44 73.173,267.413 60.907,268.16C45.76,269.227 33.28,286.933 31.68,302.933C32.747,293.333 51.947,286.933 59.307,287.787C70.827,309.547 75.307,352.427 75.307,352.427C84.907,328.213 81.067,309.013 76.373,297.493L76.267,297.6Z" style="fill-opacity:0.1;fill-rule:nonzero;"/>
                    </g>
                    <g transform="matrix(0.519368,0,0,0.519538,180.009,90.5469)">
                        <path d="M410.987,405.76C421.013,405.973 430.507,403.093 438.72,394.56C442.987,390.08 447.467,387.627 453.653,391.36C468.48,400.64 471.893,423.573 467.947,438.933C462.599,455.798 450.832,469.903 435.2,478.187C394.453,502.08 363.093,496.747 321.28,481.387C288.427,469.44 243.947,445.227 255.147,403.627C269.227,352.107 329.387,376.96 363.307,390.827C377.707,396.693 394.88,405.227 410.987,405.76Z" style="fill:white;fill-rule:nonzero;"/>
                        <path d="M370.133,494.08L363.733,493.227L387.947,400.747L394.027,402.773L370.24,494.08L370.133,494.08ZM455.36,461.867C453.649,463.847 451.833,465.734 449.92,467.52L436.053,397.12L438.827,394.56C439.68,393.6 440.64,392.747 441.6,392L455.36,461.973L455.36,461.867ZM316.587,374.827L282.027,461.867C280.208,460.608 278.429,459.292 276.693,457.92L310.187,373.653L316.587,374.827Z" style="fill:rgb(209,211,212);fill-rule:nonzero;"/>
                    </g>
                    <g transform="matrix(0.519368,0,0,0.519538,180.009,90.5469)">
                        <path d="M365.867,314.027C365.867,329.813 355.84,342.613 335.253,339.947C320.32,336.747 312.533,330.56 312.533,314.027C312.533,296.747 320.853,285.227 335.36,282.88C357.653,279.36 365.867,298.24 365.76,314.027L365.867,314.027ZM447.147,310.293C447.147,322.88 441.92,336.32 428.8,334.827C417.813,333.44 414.933,317.44 414.933,309.547C414.933,295.68 421.333,282.773 430.4,282.667C440.213,282.667 447.147,297.707 447.147,310.293Z" style="fill:rgb(42,18,0);fill-rule:nonzero;"/>
                        <path d="M429.013,292.267C429.227,291.2 430.72,291.093 431.04,292.16L433.813,301.547C434.027,302.08 434.453,302.4 434.88,302.293L440.32,301.44C441.173,301.44 441.813,302.293 441.387,303.04L436.907,310.613C436.753,310.87 436.714,311.18 436.8,311.467L439.573,320.853C439.787,321.92 438.507,322.773 437.76,321.92L433.813,317.973C433.373,317.597 432.703,317.645 432.32,318.08L426.24,325.547C425.6,326.293 424.32,325.867 424.427,324.8L425.173,313.813C425.173,313.493 425.173,313.28 424.96,313.067L418.987,306.987C418.347,306.453 418.773,305.28 419.627,305.173L425.173,304.32C425.6,304.32 425.92,304 426.027,303.467L429.013,292.267ZM339.2,290.88C339.344,290.443 339.754,290.146 340.213,290.146C340.673,290.146 341.083,290.443 341.227,290.88L346.24,303.147C346.453,303.573 346.88,303.893 347.307,303.787L357.653,302.507C357.69,302.503 357.727,302.501 357.764,302.501C358.35,302.501 358.831,302.982 358.831,303.568C358.831,303.801 358.755,304.028 358.613,304.213L350.933,312.96C350.673,313.249 350.591,313.659 350.72,314.027L355.52,325.653C355.574,325.783 355.601,325.921 355.601,326.061C355.601,326.647 355.12,327.128 354.534,327.128C354.315,327.128 354.1,327.06 353.92,326.933L344.96,320.853C344.559,320.6 344.034,320.644 343.68,320.96L331.413,331.307C331.211,331.548 330.911,331.688 330.596,331.688C330.011,331.688 329.53,331.206 329.53,330.621C329.53,330.491 329.554,330.362 329.6,330.24L331.413,317.12C331.491,316.712 331.324,316.295 330.987,316.053L321.387,309.653C321.105,309.454 320.937,309.129 320.937,308.783C320.937,308.269 321.308,307.825 321.813,307.733L332.267,306.347C332.693,306.347 333.013,306.027 333.12,305.707L339.2,290.773L339.2,290.88Z" style="fill:white;fill-rule:nonzero;"/>
                        <path d="M353.28,249.067C339.093,244.8 322.88,248.32 311.04,257.92C307.2,261.12 305.493,267.2 308.48,271.68C311.253,275.733 317.013,277.653 321.067,274.347C322.347,273.28 323.52,272.427 324.907,271.573L326.827,270.507L327.36,270.187C329.522,269.169 331.771,268.348 334.08,267.733L336,267.413C338.26,267.091 340.546,266.984 342.827,267.093C343.573,267.093 344.213,267.307 344.96,267.413C346.453,267.627 347.947,268.053 349.44,268.48C354.027,269.76 359.467,265.813 360.213,260.8C361.067,255.253 358.08,250.56 353.28,249.067ZM450.88,259.947C443.947,254.187 435.307,251.413 426.773,252.053C424.379,252.341 422.212,253.618 420.8,255.573C419.331,257.686 418.72,260.281 419.093,262.827C419.456,265.399 420.747,267.751 422.72,269.44C424.635,271.003 427.082,271.768 429.547,271.573L430.72,271.573C432,271.573 433.173,271.893 434.453,272.213C435.84,272.64 437.227,273.28 438.72,274.133L440,275.2C441.904,276.784 444.36,277.551 446.827,277.333C448.96,277.12 451.52,275.733 452.8,273.813C454.08,271.68 454.933,269.12 454.507,266.56C453.973,264 452.907,261.653 450.88,259.947Z" style="fill:rgb(113,71,45);fill-rule:nonzero;"/>
                    </g>
                    <g transform="matrix(0.519368,0,0,0.520553,179.361,91.8432)">
                        <path d="M451.2,239.467C424.533,128.533 328,108.267 288.533,109.867C113.173,112 74.347,254.08 76.8,331.2C77.867,329.067 80,327.467 80,327.467C93.867,320 101.867,322.133 104.533,322.133C150.933,324.267 167.253,379.2 164.267,402.667C172.693,410.56 184.213,402.88 189.12,399.573L189.333,399.467C193.173,396.907 189.333,385.067 189.333,378.133C179.733,333.333 181.867,269.333 184.533,269.333C186.667,269.333 216,266.88 227.733,265.067C226.88,253.973 223.787,222.08 227.733,216.533C224.32,222.08 238.613,255.787 240,262.4C292.8,267.733 400.533,248.533 403.733,246.933C406.293,245.653 402.667,217.28 400.533,203.2C408.64,210.88 415.253,237.013 416.533,246.933C426.773,246.08 443.947,241.6 451.2,239.467Z" style="fill:rgb(35,141,128);fill-rule:nonzero;"/>
                        <path d="M301.867,126.933C326.72,128.747 384.427,144.213 416,192C403.52,166.08 363.307,116.693 301.867,126.933ZM353.067,178.133C360.533,187.733 375.68,213.973 376.533,242.133C381.867,230.72 384.64,202.027 353.067,178.133ZM140.8,267.733C145.92,210.56 183.467,168.533 201.6,154.667C133.333,176.853 118.4,249.92 119.467,283.733C120.32,241.067 144.747,204.8 156.8,192C145.707,211.627 141.547,250.667 140.8,267.733Z" style="fill-opacity:0.2;fill-rule:nonzero;"/>
                    </g>
                </g>
                <g transform="matrix(0.644856,-0.086565,0.086565,0.644856,70.0388,146.986)">
                    <g transform="matrix(0.849587,0,0,1.06283,67.0583,-343.109)">
                        <path d="M379.324,153.589C397.551,153.589 412.327,165.4 412.327,179.97C412.327,215.816 412.327,279.538 412.327,315.385C412.327,329.955 397.551,341.766 379.324,341.766C347.739,341.766 300.358,341.766 268.774,341.766C250.547,341.766 235.771,329.955 235.771,315.385C235.771,279.538 235.771,215.816 235.771,179.97C235.771,165.4 250.547,153.589 268.774,153.589C300.358,153.589 347.739,153.589 379.324,153.589Z" style="fill:rgb(70,167,88);"/>
                    </g>
                    <g transform="matrix(14.5893,0,0,14.5893,-9597.02,-3542.05)">
                        <g transform="matrix(12,0,0,12,684.561,241.617)">
                        </g>
                        <text x="677.889px" y="241.617px" style="font-family:'DINRoundPro-Black', 'DIN Round Pro', sans-serif;font-weight:900;font-size:12px;fill:white;">1</text>
                    </g>
                </g>
                <g transform="matrix(0.639316,0.120859,-0.120859,0.639316,381.851,61.9098)">
                    <g transform="matrix(0.849587,0,0,1.06283,67.0583,-343.109)">
                        <path d="M379.324,153.589C397.551,153.589 412.327,165.4 412.327,179.97C412.327,215.816 412.327,279.538 412.327,315.385C412.327,329.955 397.551,341.766 379.324,341.766C347.739,341.766 300.358,341.766 268.774,341.766C250.547,341.766 235.771,329.955 235.771,315.385C235.771,279.538 235.771,215.816 235.771,179.97C235.771,165.4 250.547,153.589 268.774,153.589C300.358,153.589 347.739,153.589 379.324,153.589Z" style="fill:rgb(0,162,199);"/>
                    </g>
                    <g transform="matrix(14.5893,0,0,14.5893,-9597.02,-3542.05)">
                        <g transform="matrix(12,0,0,12,684.561,241.617)">
                        </g>
                        <text x="677.889px" y="241.617px" style="font-family:'DINRoundPro-Black', 'DIN Round Pro', sans-serif;font-weight:900;font-size:12px;fill:white;">2</text>
                    </g>
                </g>
                <g transform="matrix(-0.607647,0,0,0.607647,735.042,120.624)">
                    <g transform="matrix(0.85775,0,0,0.85427,55.4667,50.1333)">
                        <path d="M281.6,41.173C281.6,41.173 421.76,63.147 411.093,263.147C411.093,263.893 427.307,274.773 428.587,275.947C440.424,286.211 449.086,299.647 453.547,314.667C468.373,369.387 415.467,425.813 372.693,440.747C356.642,446.236 339.84,449.222 322.88,449.6C212.907,452.8 67.2,382.72 59.733,245.867C58.698,215.232 64.188,184.725 75.84,156.373C75.84,156.48 137.067,4.373 281.6,41.173Z" style="fill:rgb(239,204,159);fill-rule:nonzero;"/>
                        <path d="M414.613,265.28C413.118,268.895 411.975,272.646 411.2,276.48C409.65,288.07 412.93,299.802 420.267,308.907C428.853,319.524 441.812,325.689 455.467,325.653C452.053,291.84 424.533,271.573 414.613,265.28ZM217.067,354.133C243.093,348.587 259.307,321.067 253.227,292.8C247.147,264.533 221.013,246.187 194.987,251.733C168.96,257.387 152.853,284.8 158.933,313.173C165.013,341.44 191.04,359.787 217.067,354.24L217.067,354.133Z" style="fill:rgb(220,36,0);fill-opacity:0.1;fill-rule:nonzero;"/>
                        <path d="M344.533,275.093C344.533,275.093 366.827,253.867 384,273.813L344.533,275.093Z" style="fill-opacity:0.1;fill-rule:nonzero;"/>
                        <path d="M137.28,380.693C63.253,417.813 -3.947,324.693 17.6,272.32C31.36,238.827 71.36,236.267 94.507,266.773C108.541,285.76 119.055,307.113 125.547,329.813" style="fill:rgb(239,204,159);fill-rule:nonzero;"/>
                        <path d="M76.267,297.6C85.867,307.2 93.44,321.6 102.933,329.6C101.12,316.267 98.347,301.867 91.84,289.813C85.227,277.44 73.173,267.413 60.907,268.16C45.76,269.227 33.28,286.933 31.68,302.933C32.747,293.333 51.947,286.933 59.307,287.787C70.827,309.547 75.307,352.427 75.307,352.427C84.907,328.213 81.067,309.013 76.373,297.493L76.267,297.6Z" style="fill-opacity:0.1;fill-rule:nonzero;"/>
                    </g>
                    <g transform="matrix(0.85472,0,0,0.855,20.2667,-18.1333)">
                        <path d="M410.987,405.76C421.013,405.973 430.507,403.093 438.72,394.56C442.987,390.08 447.467,387.627 453.653,391.36C468.48,400.64 471.893,423.573 467.947,438.933C462.599,455.798 450.832,469.903 435.2,478.187C394.453,502.08 363.093,496.747 321.28,481.387C288.427,469.44 243.947,445.227 255.147,403.627C269.227,352.107 329.387,376.96 363.307,390.827C377.707,396.693 394.88,405.227 410.987,405.76Z" style="fill:white;fill-rule:nonzero;"/>
                        <path d="M370.133,494.08L363.733,493.227L387.947,400.747L394.027,402.773L370.24,494.08L370.133,494.08ZM455.36,461.867C453.649,463.847 451.833,465.734 449.92,467.52L436.053,397.12L438.827,394.56C439.68,393.6 440.64,392.747 441.6,392L455.36,461.973L455.36,461.867ZM316.587,374.827L282.027,461.867C280.208,460.608 278.429,459.292 276.693,457.92L310.187,373.653L316.587,374.827Z" style="fill:rgb(209,211,212);fill-rule:nonzero;"/>
                    </g>
                    <g transform="matrix(0.85472,0,0,0.855,20.2667,-18.1333)">
                        <path d="M365.867,314.027C365.867,329.813 355.84,342.613 335.253,339.947C320.32,336.747 312.533,330.56 312.533,314.027C312.533,296.747 320.853,285.227 335.36,282.88C357.653,279.36 365.867,298.24 365.76,314.027L365.867,314.027ZM447.147,310.293C447.147,322.88 441.92,336.32 428.8,334.827C417.813,333.44 414.933,317.44 414.933,309.547C414.933,295.68 421.333,282.773 430.4,282.667C440.213,282.667 447.147,297.707 447.147,310.293Z" style="fill:rgb(42,18,0);fill-rule:nonzero;"/>
                        <path d="M429.013,292.267C429.227,291.2 430.72,291.093 431.04,292.16L433.813,301.547C434.027,302.08 434.453,302.4 434.88,302.293L440.32,301.44C441.173,301.44 441.813,302.293 441.387,303.04L436.907,310.613C436.753,310.87 436.714,311.18 436.8,311.467L439.573,320.853C439.787,321.92 438.507,322.773 437.76,321.92L433.813,317.973C433.373,317.597 432.703,317.645 432.32,318.08L426.24,325.547C425.6,326.293 424.32,325.867 424.427,324.8L425.173,313.813C425.173,313.493 425.173,313.28 424.96,313.067L418.987,306.987C418.347,306.453 418.773,305.28 419.627,305.173L425.173,304.32C425.6,304.32 425.92,304 426.027,303.467L429.013,292.267ZM339.2,290.88C339.344,290.443 339.754,290.146 340.213,290.146C340.673,290.146 341.083,290.443 341.227,290.88L346.24,303.147C346.453,303.573 346.88,303.893 347.307,303.787L357.653,302.507C357.69,302.503 357.727,302.501 357.764,302.501C358.35,302.501 358.831,302.982 358.831,303.568C358.831,303.801 358.755,304.028 358.613,304.213L350.933,312.96C350.673,313.249 350.591,313.659 350.72,314.027L355.52,325.653C355.574,325.783 355.601,325.921 355.601,326.061C355.601,326.647 355.12,327.128 354.534,327.128C354.315,327.128 354.1,327.06 353.92,326.933L344.96,320.853C344.559,320.6 344.034,320.644 343.68,320.96L331.413,331.307C331.211,331.548 330.911,331.688 330.596,331.688C330.011,331.688 329.53,331.206 329.53,330.621C329.53,330.491 329.554,330.362 329.6,330.24L331.413,317.12C331.491,316.712 331.324,316.295 330.987,316.053L321.387,309.653C321.105,309.454 320.937,309.129 320.937,308.783C320.937,308.269 321.308,307.825 321.813,307.733L332.267,306.347C332.693,306.347 333.013,306.027 333.12,305.707L339.2,290.773L339.2,290.88Z" style="fill:white;fill-rule:nonzero;"/>
                        <path d="M353.28,249.067C339.093,244.8 322.88,248.32 311.04,257.92C307.2,261.12 305.493,267.2 308.48,271.68C311.253,275.733 317.013,277.653 321.067,274.347C322.347,273.28 323.52,272.427 324.907,271.573L326.827,270.507L327.36,270.187C329.522,269.169 331.771,268.348 334.08,267.733L336,267.413C338.26,267.091 340.546,266.984 342.827,267.093C343.573,267.093 344.213,267.307 344.96,267.413C346.453,267.627 347.947,268.053 349.44,268.48C354.027,269.76 359.467,265.813 360.213,260.8C361.067,255.253 358.08,250.56 353.28,249.067ZM450.88,259.947C443.947,254.187 435.307,251.413 426.773,252.053C424.379,252.341 422.212,253.618 420.8,255.573C419.331,257.686 418.72,260.281 419.093,262.827C419.456,265.399 420.747,267.751 422.72,269.44C424.635,271.003 427.082,271.768 429.547,271.573L430.72,271.573C432,271.573 433.173,271.893 434.453,272.213C435.84,272.64 437.227,273.28 438.72,274.133L440,275.2C441.904,276.784 444.36,277.551 446.827,277.333C448.96,277.12 451.52,275.733 452.8,273.813C454.08,271.68 454.933,269.12 454.507,266.56C453.973,264 452.907,261.653 450.88,259.947Z" style="fill:rgb(113,71,45);fill-rule:nonzero;"/>
                    </g>
                    <g transform="matrix(0.85472,0,0,0.85667,19.2,-16)">
                        <path d="M405.227,224C415.352,234.282 429.576,239.494 443.947,238.187C449.28,256.64 453.013,277.653 454.187,302.08C471.174,294.422 482.146,277.441 482.146,258.807C482.146,247.201 477.889,235.989 470.187,227.307C481.839,217.616 488.573,203.209 488.533,188.053C488.762,164.144 471.855,143.234 448.427,138.453C448.748,136.047 448.909,133.623 448.909,131.196C448.909,101.38 424.587,76.749 394.773,76.373C386.667,76.373 378.987,78.187 372.053,81.493C364.077,60.882 344.233,47.144 322.133,46.933C303.36,46.933 286.933,56.747 277.227,71.68C267.788,64.396 256.189,60.454 244.267,60.48C221.867,60.48 202.667,74.24 194.24,93.76C187.52,90.56 179.947,88.853 172.053,88.853C142.398,89.258 118.193,113.702 118.08,143.36C89.542,146.079 67.487,170.334 67.487,199.001C67.487,212.406 72.309,225.372 81.067,235.52C70.257,246.02 64.15,260.466 64.15,275.536C64.15,305.64 88.518,330.592 118.613,331.307C120.64,331.307 122.56,331.307 124.587,330.987C150.293,346.453 163.307,377.493 166.933,394.24C166.933,394.24 178.987,394.88 181.867,392.64C193.6,386.453 212.8,365.013 213.653,323.84C228.77,309.144 234.316,287.084 227.947,266.987C244.563,262.244 258.012,249.942 264.213,233.813C287.267,244.206 314.691,236.959 329.6,216.533C338.776,230.106 354.13,238.258 370.513,238.258C383.505,238.258 395.986,233.132 405.227,224Z" style="fill:rgb(213,108,12);fill-rule:nonzero;"/>
                    </g>
                    <g transform="matrix(0.85472,0,0,0.85667,14.9333,-12.8)">
                        <g>
                            <path d="M510.933,302.187L458.667,300.267L458.133,289.067L511.253,291.52L511.04,302.187L510.933,302.187Z" style="fill:rgb(137,99,7);"/>
                            <path d="M324.267,235.413C295.253,240 275.2,269.76 280.32,302.613C285.547,335.573 313.813,357.653 342.827,353.067C371.84,348.48 392,318.72 386.88,285.867C381.653,253.013 353.387,230.827 324.373,235.413L324.267,235.413ZM269.013,291.2C269.547,258.56 291.307,229.973 322.667,225.067C358.187,219.413 391.36,246.4 397.333,284.373L400.853,283.093C405.345,281.717 410.106,281.461 414.72,282.347C415.36,269.013 419.2,256.747 425.6,247.147C432.719,235.097 445.255,227.218 459.2,226.027C473.346,225.765 486.811,232.221 495.467,243.413C505.53,255.779 511.431,271.015 512.32,286.933C513.718,302.727 509.976,318.557 501.653,332.053C494.488,344.091 481.91,351.932 467.947,353.067C453.819,353.353 440.357,346.939 431.68,335.787C421.842,323.71 415.99,308.874 414.933,293.333C411.307,291.84 407.467,292.053 403.84,293.12C401.6,293.76 399.573,294.72 398.187,295.467C398.507,328.853 376.533,358.4 344.533,363.52C308.907,369.067 275.84,342.08 269.867,304.213C269.748,303.433 269.641,302.65 269.547,301.867L177.387,286.933C161.588,284.37 145.418,285.317 130.027,289.707C117.227,293.973 110.507,309.76 110.293,319.573L99.733,319.36C100.053,303.04 111.893,284.587 126.72,279.573C141.44,274.667 160.533,273.92 178.773,276.373L178.773,276.48L269.013,290.987L269.013,291.2ZM434.347,253.013C427.325,264.521 424.183,277.986 425.387,291.413C426.453,306.453 431.893,319.68 439.68,328.747C447.467,338.027 457.387,342.933 467.413,342.4C477.333,341.867 486.4,336 492.8,326.187C499.844,314.649 502.987,301.143 501.76,287.68C500.693,272.64 495.36,259.413 487.467,250.347C479.68,241.173 469.867,236.16 459.733,236.693C449.813,237.227 440.853,243.093 434.347,253.013Z" style="fill:rgb(197,144,15);"/>
                        </g>
                    </g>
                </g>
            </g>
        </g>
    </g>
</svg>
