<?xml version="1.0" encoding="UTF-8" standalone="no"?>
<svg width="100%" height="100%" viewBox="0 0 48 48" version="1.1" xmlns="http://www.w3.org/2000/svg" xmlns:xlink="http://www.w3.org/1999/xlink" xml:space="preserve" xmlns:serif="http://www.serif.com/" style="fill-rule:evenodd;clip-rule:evenodd;stroke-linejoin:round;stroke-miterlimit:2;">
  <ellipse cx="24" cy="40" rx="12" ry="6" fill="#8E8C99" opacity="0.5" />
  <path d="M14.155,5.111C16.96,2.66 20.609,2 24,2C27.391,2 31.04,2.66 33.845,5.111C36.691,7.597 38.394,11.681 38.394,17.903C38.394,27.094 31.336,33.786 27.497,36.77C25.412,38.391 22.588,38.391 20.503,36.77C16.664,33.786 9.606,27.094 9.606,17.903C9.606,11.681 11.309,7.597 14.155,5.111ZM17.253,16.394C17.253,20.121 20.274,23.142 24,23.142C27.727,23.142 30.747,20.121 30.747,16.394C30.747,12.668 27.727,9.647 24,9.647C20.274,9.647 17.253,12.668 17.253,16.394Z" style="fill:rgb(234,62,131);stroke:rgb(202,28,98);stroke-width:2px;"/>
</svg>
