<?xml version="1.0" encoding="UTF-8" standalone="no"?>
<!DOCTYPE svg PUBLIC "-//W3C//DTD SVG 1.1//EN" "http://www.w3.org/Graphics/SVG/1.1/DTD/svg11.dtd">
<svg width="100%" height="100%" viewBox="0 0 375 401" version="1.1" xmlns="http://www.w3.org/2000/svg" xmlns:xlink="http://www.w3.org/1999/xlink" xml:space="preserve" xmlns:serif="http://www.serif.com/" style="fill-rule:evenodd;clip-rule:evenodd;stroke-linejoin:round;stroke-miterlimit:2;">
    <g transform="matrix(1,0,0,1,0,-1101)">
        <g id="wait1" transform="matrix(0.612834,0,0,0.578662,0,1638.29)">
            <rect x="0" y="-928.01" width="611.911" height="691.25" style="fill:none;"/>
            <g transform="matrix(1.36715,0,0,1.44789,-574.645,-2616.84)">
                <path d="M563.09,1419.04C559.282,1419.67 555.372,1420 551.386,1420C511.987,1420 480,1388.01 480,1348.61C480,1309.21 511.987,1277.23 551.386,1277.23C552.426,1277.23 553.461,1277.25 554.491,1277.29C552.843,1271.82 551.957,1266.01 551.957,1260C551.957,1226.88 578.842,1200 611.957,1200C627.34,1200 641.379,1205.8 652.003,1215.34C668.56,1200.78 690.268,1191.96 714.022,1191.96C764.938,1191.96 806.455,1232.52 807.999,1283.06C832.713,1293.87 850,1318.55 850,1347.23C850,1385.86 818.634,1417.23 780,1417.23C779.654,1417.23 779.309,1417.23 778.965,1417.22C773.002,1452.83 742.008,1480 704.718,1480C681.734,1480 661.142,1469.68 647.329,1453.42C639.13,1457.63 629.84,1460 620,1460C593.54,1460 571.058,1442.84 563.09,1419.04Z" style="fill:rgb(255,238,0);fill-opacity:0.25;"/>
            </g>
            <g transform="matrix(0.708069,0,0,0.749883,-14.8479,-592.555)">
                <g transform="matrix(0.85775,0,0,0.85427,55.4667,50.1333)">
                    <path d="M281.6,41.173C281.6,41.173 421.76,63.147 411.093,263.147C411.093,263.893 427.307,274.773 428.587,275.947C440.424,286.211 449.086,299.647 453.547,314.667C468.373,369.387 415.467,425.813 372.693,440.747C356.642,446.236 339.84,449.222 322.88,449.6C212.907,452.8 67.2,382.72 59.733,245.867C58.698,215.232 64.188,184.725 75.84,156.373C75.84,156.48 137.067,4.373 281.6,41.173Z" style="fill:rgb(239,204,159);fill-rule:nonzero;"/>
                    <path d="M414.613,265.28C413.118,268.895 411.975,272.646 411.2,276.48C409.65,288.07 412.93,299.802 420.267,308.907C428.853,319.524 441.812,325.689 455.467,325.653C452.053,291.84 424.533,271.573 414.613,265.28ZM217.067,354.133C243.093,348.587 259.307,321.067 253.227,292.8C247.147,264.533 221.013,246.187 194.987,251.733C168.96,257.387 152.853,284.8 158.933,313.173C165.013,341.44 191.04,359.787 217.067,354.24L217.067,354.133Z" style="fill:rgb(220,36,0);fill-opacity:0.1;fill-rule:nonzero;"/>
                    <path d="M344.533,275.093C344.533,275.093 366.827,253.867 384,273.813L344.533,275.093Z" style="fill-opacity:0.1;fill-rule:nonzero;"/>
                    <path d="M137.28,380.693C63.253,417.813 -3.947,324.693 17.6,272.32C31.36,238.827 71.36,236.267 94.507,266.773C108.541,285.76 119.055,307.113 125.547,329.813" style="fill:rgb(239,204,159);fill-rule:nonzero;"/>
                    <path d="M76.267,297.6C85.867,307.2 93.44,321.6 102.933,329.6C101.12,316.267 98.347,301.867 91.84,289.813C85.227,277.44 73.173,267.413 60.907,268.16C45.76,269.227 33.28,286.933 31.68,302.933C32.747,293.333 51.947,286.933 59.307,287.787C70.827,309.547 75.307,352.427 75.307,352.427C84.907,328.213 81.067,309.013 76.373,297.493L76.267,297.6Z" style="fill-opacity:0.1;fill-rule:nonzero;"/>
                </g>
                <g transform="matrix(0.85472,0,0,0.855,20.2667,-18.1333)">
                    <path d="M332.16,386.453C361.6,369.067 386.773,368 404.587,366.933C440.107,364.8 469.76,376.32 477.653,412.48C484.907,445.76 459.627,465.173 448,464.747C436.267,464.427 433.813,451.733 406.08,451.093C378.347,450.453 338.453,496.853 314.88,479.467C291.2,461.973 295.253,408.427 332.16,386.667L332.16,386.453Z" style="fill:rgb(135,60,65);fill-rule:nonzero;"/>
                    <path d="M462.187,458.88C458.246,462.196 453.351,464.176 448.213,464.533C443.627,464.427 440.427,462.4 436.587,459.84C430.72,456 423.147,451.2 406.187,450.773C394.453,450.56 380.48,458.667 366.507,466.88C347.52,477.973 328.533,489.173 314.88,479.147C302.4,469.973 297.707,450.987 301.227,431.787C322.56,425.387 346.347,425.813 368.213,428.267C399.68,431.787 431.36,438.933 459.307,456.853C460.28,457.51 461.24,458.186 462.187,458.88Z" style="fill:rgb(238,126,139);fill-rule:nonzero;"/>
                    <path d="M355.627,393.067C343.938,401.426 329.191,404.344 315.2,401.067C319.787,395.413 325.44,390.4 332.16,386.453C354.199,373.669 379.215,366.9 404.693,366.827C427.733,365.333 448.213,369.707 462.08,382.72L461.44,383.467C452.732,392.987 438.942,396.103 426.987,391.253C425.28,390.507 423.147,391.68 422.293,393.28C411.84,413.44 375.573,414.4 361.493,394.773C360.107,392.96 357.653,391.787 355.627,393.067Z" style="fill:white;fill-rule:nonzero;"/>
                </g>
                <g transform="matrix(0.85472,0,0,0.855,20.2667,-18.1333)">
                    <path d="M428.693,303.787C432.853,305.707 438.613,307.947 444.16,309.227C445.867,312.533 446.827,316.587 446.827,320.213C446.827,328.747 442.987,337.813 432.96,336.747C424.747,335.893 422.613,325.013 422.613,319.68C422.613,313.28 424.96,306.88 428.693,303.68L428.693,303.787ZM315.947,312C315.52,314.133 315.307,316.267 315.307,318.4C315.307,331.733 321.92,338.667 331.84,341.333C345.707,343.467 352.427,333.12 352.427,320.533C352.427,313.067 349.333,305.813 344.533,301.12C336.127,307.197 326.266,310.95 315.947,312Z" style="fill:rgb(42,18,0);fill-rule:nonzero;"/>
                    <path d="M346.453,253.547C331.473,256.047 318.608,265.685 312,279.36C309.867,283.84 310.827,290.027 315.413,292.907C319.68,295.467 325.653,294.72 328,290.027C328.64,288.533 329.387,287.253 330.133,285.867C330.453,285.44 331.307,284.587 331.52,284.053L331.947,283.627C333.466,281.81 335.143,280.132 336.96,278.613C337.493,278.293 338.027,277.76 338.56,277.547C340.481,276.291 342.517,275.22 344.64,274.347C346.758,273.626 348.936,273.09 351.147,272.747C355.84,272 359.147,266.133 357.76,261.227C356.16,255.893 351.573,252.8 346.453,253.547ZM453.547,277.76C450.24,269.44 443.84,262.827 436.053,259.52C433.92,258.453 431.147,258.773 429.013,259.733C426.987,260.8 424.96,262.933 424.213,265.28C423.314,267.687 423.314,270.34 424.213,272.747C425.138,275.076 426.938,276.953 429.227,277.973L430.293,278.507C431.36,279.147 432.427,280 433.387,280.853C434.453,281.92 435.307,283.2 436.053,284.48L436.8,286.08C437.76,288.32 439.68,290.347 441.813,291.2C443.947,292.053 446.72,292.053 448.747,290.88C450.88,289.813 452.8,287.787 453.653,285.333C454.4,282.88 454.507,280.213 453.653,277.867L453.547,277.76Z" style="fill:rgb(113,71,45);fill-rule:nonzero;"/>
                </g>
                <g transform="matrix(0.85472,0,0,0.85667,19.2,-16)">
                    <path d="M405.227,224C415.352,234.282 429.576,239.494 443.947,238.187C449.28,256.64 453.013,277.653 454.187,302.08C471.174,294.422 482.146,277.441 482.146,258.807C482.146,247.201 477.889,235.989 470.187,227.307C481.839,217.616 488.573,203.209 488.533,188.053C488.762,164.144 471.855,143.234 448.427,138.453C448.748,136.047 448.909,133.623 448.909,131.196C448.909,101.38 424.587,76.749 394.773,76.373C386.667,76.373 378.987,78.187 372.053,81.493C364.077,60.882 344.233,47.144 322.133,46.933C303.36,46.933 286.933,56.747 277.227,71.68C267.788,64.396 256.189,60.454 244.267,60.48C221.867,60.48 202.667,74.24 194.24,93.76C187.52,90.56 179.947,88.853 172.053,88.853C142.398,89.258 118.193,113.702 118.08,143.36C89.542,146.079 67.487,170.334 67.487,199.001C67.487,212.406 72.309,225.372 81.067,235.52C70.257,246.02 64.15,260.466 64.15,275.536C64.15,305.64 88.518,330.592 118.613,331.307C120.64,331.307 122.56,331.307 124.587,330.987C150.293,346.453 163.307,377.493 166.933,394.24C166.933,394.24 178.987,394.88 181.867,392.64C193.6,386.453 212.8,365.013 213.653,323.84C228.77,309.144 234.316,287.084 227.947,266.987C244.563,262.244 258.012,249.942 264.213,233.813C287.267,244.206 314.691,236.959 329.6,216.533C338.776,230.106 354.13,238.258 370.513,238.258C383.505,238.258 395.986,233.132 405.227,224Z" style="fill:rgb(213,108,12);fill-rule:nonzero;"/>
                </g>
                <g transform="matrix(0.85472,0,0,0.85667,14.9333,-12.8)">
                    <g>
                        <path d="M510.933,302.187L458.667,300.267L458.133,289.067L511.253,291.52L511.04,302.187L510.933,302.187Z" style="fill:rgb(137,99,7);"/>
                        <path d="M324.267,235.413C295.253,240 275.2,269.76 280.32,302.613C285.547,335.573 313.813,357.653 342.827,353.067C371.84,348.48 392,318.72 386.88,285.867C381.653,253.013 353.387,230.827 324.373,235.413L324.267,235.413ZM269.013,291.2C269.547,258.56 291.307,229.973 322.667,225.067C358.187,219.413 391.36,246.4 397.333,284.373L400.853,283.093C405.345,281.717 410.106,281.461 414.72,282.347C415.36,269.013 419.2,256.747 425.6,247.147C432.719,235.097 445.255,227.218 459.2,226.027C473.346,225.765 486.811,232.221 495.467,243.413C505.53,255.779 511.431,271.015 512.32,286.933C513.718,302.727 509.976,318.557 501.653,332.053C494.488,344.091 481.91,351.932 467.947,353.067C453.819,353.353 440.357,346.939 431.68,335.787C421.842,323.71 415.99,308.874 414.933,293.333C411.307,291.84 407.467,292.053 403.84,293.12C401.6,293.76 399.573,294.72 398.187,295.467C398.507,328.853 376.533,358.4 344.533,363.52C308.907,369.067 275.84,342.08 269.867,304.213C269.748,303.433 269.641,302.65 269.547,301.867L177.387,286.933C161.588,284.37 145.418,285.317 130.027,289.707C117.227,293.973 110.507,309.76 110.293,319.573L99.733,319.36C100.053,303.04 111.893,284.587 126.72,279.573C141.44,274.667 160.533,273.92 178.773,276.373L178.773,276.48L269.013,290.987L269.013,291.2ZM434.347,253.013C427.325,264.521 424.183,277.986 425.387,291.413C426.453,306.453 431.893,319.68 439.68,328.747C447.467,338.027 457.387,342.933 467.413,342.4C477.333,341.867 486.4,336 492.8,326.187C499.844,314.649 502.987,301.143 501.76,287.68C500.693,272.64 495.36,259.413 487.467,250.347C479.68,241.173 469.867,236.16 459.733,236.693C449.813,237.227 440.853,243.093 434.347,253.013Z" style="fill:rgb(197,144,15);"/>
                    </g>
                </g>
            </g>
            <g transform="matrix(0.914251,0.141118,-0.133249,0.968241,153.583,-369.112)">
                <g transform="matrix(0.849587,0,0,1.06283,67.0583,-343.109)">
                    <path d="M387.381,153.589C393.997,153.589 400.342,155.69 405.021,159.429C409.699,163.169 412.327,168.241 412.327,173.53L412.327,321.825C412.327,327.114 409.699,332.186 405.021,335.925C400.342,339.665 393.997,341.766 387.381,341.766L260.717,341.766C254.101,341.766 247.756,339.665 243.077,335.925C238.399,332.186 235.771,327.114 235.771,321.825L235.771,173.53C235.771,168.241 238.399,163.169 243.077,159.429C247.756,155.69 254.101,153.589 260.717,153.589L387.381,153.589Z" style="fill:rgb(0,162,199);"/>
                </g>
                <g transform="matrix(14.5893,0,0,14.5893,-9597.02,-3542.05)">
                    <g transform="matrix(12,0,0,12,684.561,241.617)">
                    </g>
                    <text x="677.889px" y="241.617px" style="font-family:'DINRoundPro-Black', 'DIN Round Pro', sans-serif;font-weight:900;font-size:12px;fill:white;">2</text>
                </g>
            </g>
            <g transform="matrix(-0.384107,0,0,0.40679,530.562,-890.634)">
                <g>
                    <g transform="matrix(0.85775,0,0,0.85427,55.4667,50.1333)">
                        <path d="M281.6,41.173C281.6,41.173 421.76,63.147 411.093,263.147C411.093,263.893 427.307,274.773 428.587,275.947C440.424,286.211 449.086,299.647 453.547,314.667C468.373,369.387 415.467,425.813 372.693,440.747C356.642,446.236 339.84,449.222 322.88,449.6C212.907,452.8 67.2,382.72 59.733,245.867C58.698,215.232 64.188,184.725 75.84,156.373C75.84,156.48 137.067,4.373 281.6,41.173Z" style="fill:rgb(201,156,98);fill-rule:nonzero;"/>
                        <path d="M414.613,265.28C413.118,268.895 411.975,272.646 411.2,276.48C409.65,288.07 412.93,299.802 420.267,308.907C428.853,319.524 441.812,325.689 455.467,325.653C452.053,291.84 424.533,271.573 414.613,265.28ZM217.067,354.133C243.093,348.587 259.307,321.067 253.227,292.8C247.147,264.533 221.013,246.187 194.987,251.733C168.96,257.387 152.853,284.8 158.933,313.173C165.013,341.44 191.04,359.787 217.067,354.24L217.067,354.133Z" style="fill:rgb(220,36,0);fill-opacity:0.1;fill-rule:nonzero;"/>
                        <path d="M344.533,275.093C344.533,275.093 366.827,253.867 384,273.813L344.533,275.093Z" style="fill-opacity:0.1;fill-rule:nonzero;"/>
                        <path d="M137.28,380.693C63.253,417.813 -3.947,324.693 17.6,272.32C31.36,238.827 71.36,236.267 94.507,266.773C108.541,285.76 119.055,307.113 125.547,329.813" style="fill:rgb(201,156,98);fill-rule:nonzero;"/>
                        <path d="M76.267,297.6C85.867,307.2 93.44,321.6 102.933,329.6C101.12,316.267 98.347,301.867 91.84,289.813C85.227,277.44 73.173,267.413 60.907,268.16C45.76,269.227 33.28,286.933 31.68,302.933C32.747,293.333 51.947,286.933 59.307,287.787C70.827,309.547 75.307,352.427 75.307,352.427C84.907,328.213 81.067,309.013 76.373,297.493L76.267,297.6Z" style="fill-opacity:0.1;fill-rule:nonzero;"/>
                    </g>
                    <g transform="matrix(0.85472,0,0,0.855,20.2667,-18.1333)">
                        <path d="M419.52,391.467C422.72,393.28 445.227,365.013 460.267,373.653C465.28,376.533 469.12,381.44 472,386.773C478.4,398.507 480.533,412.8 478.08,426.027C473.881,444.136 462.777,459.91 447.147,469.973C407.253,497.173 375.68,492.053 333.227,476.373C299.733,463.893 254.293,438.4 263.68,392.427C280.32,311.36 419.52,391.36 419.52,391.36L419.52,391.467Z" style="fill:rgb(135,60,65);fill-rule:nonzero;"/>
                        <path d="M304.32,386.133C315.2,392.96 328.32,393.6 340.16,390.933C342.4,390.4 344.213,392.32 344.747,394.56C350.507,416.96 383.147,428.693 399.68,414.293C400.96,413.227 403.2,412.907 404.48,414.187C413.333,422.507 427.52,424.853 437.973,419.093C452.693,411.093 452.587,388.587 448.64,372.907C435.627,376.853 421.973,392.853 419.52,391.36C419.52,391.36 334.08,342.293 289.067,360C289.599,370.692 295.292,380.486 304.32,386.24L304.32,386.133Z" style="fill:white;fill-rule:nonzero;"/>
                        <path d="M426.987,473.387C403.52,451.947 374.827,439.893 345.707,431.467C320.747,424.107 292.693,419.413 267.413,426.667C279.147,451.733 309.227,467.413 333.227,476.373C370.347,490.133 399.147,495.787 432.427,478.72C430.613,476.907 428.907,475.093 426.987,473.387Z" style="fill:rgb(238,126,139);fill-rule:nonzero;"/>
                        <path d="M298.24,357.333L305.707,361.6C310.686,364.225 315.7,366.786 320.747,369.28C337.173,377.493 362.56,386.24 375.787,390.72L378.133,391.573C393.6,396.907 412.48,402.667 433.067,402.667C438.632,402.5 444.065,400.922 448.853,398.08C449.014,398.027 449.182,398 449.352,398C450.229,398 450.952,398.723 450.952,399.6C450.952,400.088 450.729,400.55 450.347,400.853C445.101,403.953 439.157,405.678 433.067,405.867C411.947,405.867 392.533,399.893 377.067,394.56L374.72,393.813C355.454,387.458 336.577,379.979 318.187,371.413L318.08,371.413C314.027,369.493 308.907,366.933 304.213,364.373C300.267,362.24 296.747,360.213 293.867,358.4L298.24,357.333Z" style="fill:rgb(196,196,196);fill-rule:nonzero;"/>
                        <g transform="matrix(0.998441,0.0558215,-0.0558215,0.998441,22.8147,-23.1806)">
                            <path d="M439.147,403.198L439.147,403.202C439.147,406.733 436.279,409.6 432.747,409.6C429.214,409.6 426.347,406.733 426.347,403.202L426.347,403.198C426.347,399.667 429.214,396.8 432.747,396.8C436.279,396.8 439.147,399.667 439.147,403.198Z" style="fill:rgb(160,158,158);"/>
                        </g>
                        <g transform="matrix(0.965926,0.258819,-0.258819,0.965926,112.351,-83.2565)">
                            <path d="M385.173,391.465L385.173,391.468C385.173,395 382.306,397.867 378.773,397.867C375.241,397.867 372.373,395 372.373,391.468L372.373,391.465C372.373,387.934 375.241,385.067 378.773,385.067C382.306,385.067 385.173,387.934 385.173,391.465Z" style="fill:rgb(160,158,158);"/>
                        </g>
                        <g transform="matrix(0.895712,0.444635,-0.444635,0.895712,194.326,-103.181)">
                            <path d="M329.92,369.065L329.92,369.068C329.92,372.599 327.052,375.467 323.52,375.467C319.988,375.467 317.12,372.599 317.12,369.068L317.12,369.065C317.12,365.534 319.988,362.667 323.52,362.667C327.052,362.667 329.92,365.534 329.92,369.065Z" style="fill:rgb(160,158,158);"/>
                        </g>
                    </g>
                    <g transform="matrix(0.85472,0,0,0.855,20.2667,-18.1333)">
                        <path d="M320.32,329.813C329.813,329.6 339.2,333.013 347.52,338.027C352.987,331.746 355.059,323.178 353.067,315.093C350.507,302.293 340.48,293.76 330.773,295.893C321.173,298.027 315.413,310.293 318.08,323.093C318.613,325.547 319.36,327.68 320.32,329.813ZM443.84,331.307C445.227,328.213 445.973,324.48 445.973,320.427C445.76,310.293 440.32,302.08 433.813,302.08C427.307,302.08 422.08,310.4 422.293,320.64C422.4,326.187 424.213,331.2 426.773,334.507C432.107,332.373 437.973,331.307 443.84,331.307Z" style="fill:rgb(42,18,0);fill-rule:nonzero;"/>
                        <path d="M355.733,254.613C340.683,252.406 325.463,257.665 314.987,268.693C311.573,272.32 310.72,278.613 314.24,282.56C317.44,286.4 323.413,287.467 327.04,283.627L330.453,280.427C330.88,280.107 331.84,279.573 332.16,279.147L332.693,278.72C334.727,277.465 336.869,276.394 339.093,275.52C339.627,275.52 340.373,275.093 340.907,274.987C343.104,274.359 345.353,273.93 347.627,273.707L349.76,273.707L354.347,274.24C359.04,274.987 363.947,270.4 364.16,265.28C364.267,259.627 360.747,255.36 355.627,254.613L355.733,254.613ZM453.76,271.36C448.622,264.228 440.878,259.397 432.213,257.92C429.973,257.493 427.307,258.347 425.493,259.84C423.598,261.549 422.417,263.912 422.187,266.453C422.08,269.013 422.507,271.787 424.107,273.707C425.578,275.685 427.756,277.023 430.187,277.44L431.467,277.76C432.533,278.187 433.707,278.613 434.88,279.253C436.16,280.107 437.333,281.067 438.4,282.133L439.467,283.52C440.948,285.539 443.177,286.884 445.653,287.253C447.787,287.467 450.56,286.827 452.267,285.12C454.08,283.52 455.467,281.28 455.68,278.72C455.787,276.053 455.253,273.387 453.76,271.253L453.76,271.36Z" style="fill:rgb(113,71,45);fill-rule:nonzero;"/>
                    </g>
                    <g transform="matrix(0.85472,0,0,0.85667,19.2,-16)">
                        <path d="M451.2,239.467C424.533,128.533 328,108.267 288.533,109.867C113.173,112 74.347,254.08 76.8,331.2C77.867,329.067 80,327.467 80,327.467C93.867,320 101.867,322.133 104.533,322.133C150.933,324.267 167.253,379.2 164.267,402.667C172.693,410.56 184.213,402.88 189.12,399.573L189.333,399.467C193.173,396.907 189.333,385.067 189.333,378.133C179.733,333.333 181.867,269.333 184.533,269.333C186.667,269.333 216,266.88 227.733,265.067C226.88,253.973 223.787,222.08 227.733,216.533C224.32,222.08 238.613,255.787 240,262.4C292.8,267.733 400.533,248.533 403.733,246.933C406.293,245.653 402.667,217.28 400.533,203.2C408.64,210.88 415.253,237.013 416.533,246.933C426.773,246.08 443.947,241.6 451.2,239.467Z" style="fill:rgb(35,141,128);fill-rule:nonzero;"/>
                        <path d="M301.867,126.933C326.72,128.747 384.427,144.213 416,192C403.52,166.08 363.307,116.693 301.867,126.933ZM353.067,178.133C360.533,187.733 375.68,213.973 376.533,242.133C381.867,230.72 384.64,202.027 353.067,178.133ZM140.8,267.733C145.92,210.56 183.467,168.533 201.6,154.667C133.333,176.853 118.4,249.92 119.467,283.733C120.32,241.067 144.747,204.8 156.8,192C145.707,211.627 141.547,250.667 140.8,267.733Z" style="fill-opacity:0.2;fill-rule:nonzero;"/>
                    </g>
                </g>
            </g>
            <g transform="matrix(-0.384107,0,0,0.40679,334.75,-832.726)">
                <g>
                    <g transform="matrix(0.85775,0,0,0.85427,55.4667,50.1333)">
                        <path d="M281.6,41.173C281.6,41.173 421.76,63.147 411.093,263.147C411.093,263.893 427.307,274.773 428.587,275.947C440.424,286.211 449.086,299.647 453.547,314.667C468.373,369.387 415.467,425.813 372.693,440.747C356.642,446.236 339.84,449.222 322.88,449.6C212.907,452.8 67.2,382.72 59.733,245.867C58.698,215.232 64.188,184.725 75.84,156.373C75.84,156.48 137.067,4.373 281.6,41.173Z" style="fill:rgb(140,90,43);fill-rule:nonzero;"/>
                        <path d="M414.613,265.28C413.118,268.895 411.975,272.646 411.2,276.48C409.65,288.07 412.93,299.802 420.267,308.907C428.853,319.524 441.812,325.689 455.467,325.653C452.053,291.84 424.533,271.573 414.613,265.28ZM217.067,354.133C243.093,348.587 259.307,321.067 253.227,292.8C247.147,264.533 221.013,246.187 194.987,251.733C168.96,257.387 152.853,284.8 158.933,313.173C165.013,341.44 191.04,359.787 217.067,354.24L217.067,354.133Z" style="fill:rgb(220,36,0);fill-opacity:0.1;fill-rule:nonzero;"/>
                        <path d="M344.533,275.093C344.533,275.093 366.827,253.867 384,273.813L344.533,275.093Z" style="fill-opacity:0.1;fill-rule:nonzero;"/>
                        <path d="M137.28,380.693C63.253,417.813 -3.947,324.693 17.6,272.32C31.36,238.827 71.36,236.267 94.507,266.773C108.541,285.76 119.055,307.113 125.547,329.813" style="fill:rgb(140,90,43);fill-rule:nonzero;"/>
                        <path d="M76.267,297.6C85.867,307.2 93.44,321.6 102.933,329.6C101.12,316.267 98.347,301.867 91.84,289.813C85.227,277.44 73.173,267.413 60.907,268.16C45.76,269.227 33.28,286.933 31.68,302.933C32.747,293.333 51.947,286.933 59.307,287.787C70.827,309.547 75.307,352.427 75.307,352.427C84.907,328.213 81.067,309.013 76.373,297.493L76.267,297.6Z" style="fill-opacity:0.1;fill-rule:nonzero;"/>
                    </g>
                    <g transform="matrix(0.85472,0,0,0.855,20.2667,-18.1333)">
                        <path d="M419.52,391.467C422.72,393.28 445.227,365.013 460.267,373.653C465.28,376.533 469.12,381.44 472,386.773C478.4,398.507 480.533,412.8 478.08,426.027C473.881,444.136 462.777,459.91 447.147,469.973C407.253,497.173 375.68,492.053 333.227,476.373C299.733,463.893 254.293,438.4 263.68,392.427C280.32,311.36 419.52,391.36 419.52,391.36L419.52,391.467Z" style="fill:rgb(135,60,65);fill-rule:nonzero;"/>
                        <path d="M304.32,386.133C315.2,392.96 328.32,393.6 340.16,390.933C342.4,390.4 344.213,392.32 344.747,394.56C350.507,416.96 383.147,428.693 399.68,414.293C400.96,413.227 403.2,412.907 404.48,414.187C413.333,422.507 427.52,424.853 437.973,419.093C452.693,411.093 452.587,388.587 448.64,372.907C435.627,376.853 421.973,392.853 419.52,391.36C419.52,391.36 334.08,342.293 289.067,360C289.599,370.692 295.292,380.486 304.32,386.24L304.32,386.133Z" style="fill:white;fill-rule:nonzero;"/>
                        <path d="M426.987,473.387C403.52,451.947 374.827,439.893 345.707,431.467C320.747,424.107 292.693,419.413 267.413,426.667C279.147,451.733 309.227,467.413 333.227,476.373C370.347,490.133 399.147,495.787 432.427,478.72C430.613,476.907 428.907,475.093 426.987,473.387Z" style="fill:rgb(238,126,139);fill-rule:nonzero;"/>
                    </g>
                    <g transform="matrix(0.85472,0,0,0.855,20.2667,-18.1333)">
                        <path d="M353.28,320.533C353.28,333.227 346.667,343.467 332.907,341.333C322.987,338.667 316.373,331.733 316.373,318.4C316.373,304.533 324.587,295.467 332.907,295.467C344.213,295.467 353.28,307.84 353.173,320.533L353.28,320.533ZM446.933,320.32C446.933,328.853 443.093,337.92 433.28,336.853C424.96,336 422.933,325.12 422.933,319.787C422.933,310.507 427.627,301.653 434.453,301.653C441.707,301.653 446.933,311.787 446.933,320.32Z" style="fill:rgb(42,18,0);fill-rule:nonzero;"/>
                        <path d="M359.467,260.48C345.697,253.91 329.55,254.468 316.267,261.973C312,264.427 309.227,270.187 311.467,275.093C313.493,279.573 318.933,282.453 323.413,279.893C324.8,279.04 326.187,278.4 327.68,277.76C328.107,277.547 329.28,277.333 329.707,277.013L330.347,276.8C332.619,276.206 334.939,275.813 337.28,275.627L339.307,275.627C341.568,275.702 343.818,275.988 346.027,276.48L348.16,277.12C349.547,277.547 350.933,278.187 352.427,278.827C356.693,280.96 362.667,277.973 364.267,273.173C366.08,267.84 363.947,262.72 359.36,260.48L359.467,260.48ZM451.733,265.067C443.84,260.8 434.667,259.733 426.56,262.187C424.427,262.827 422.293,264.747 421.44,266.88C420.373,269.013 420.373,272 421.227,274.347C422.125,276.761 423.869,278.771 426.133,280C428.298,281.136 430.818,281.404 433.173,280.747L434.347,280.427L438.187,280.427C439.68,280.533 441.173,280.96 442.667,281.493L444.16,282.133C446.293,283.307 449.067,283.627 451.307,282.88C453.44,282.24 455.573,280.427 456.427,278.187C457.28,276.053 457.6,273.28 456.64,270.827C455.573,268.373 454.08,266.347 451.733,265.067Z" style="fill:rgb(113,71,45);fill-rule:nonzero;"/>
                    </g>
                    <g transform="matrix(0.85472,0,0,0.85667,19.2,-16)">
                        <path d="M191.253,175.787C144.64,175.787 106.88,134.827 106.88,84.16C106.88,33.6 144.64,-7.467 191.147,-7.467C237.76,-7.467 275.52,33.6 275.52,84.267C275.52,134.827 237.76,175.787 191.253,175.787Z" style="fill:rgb(226,186,135);fill-rule:nonzero;"/>
                        <path d="M191.253,175.787C144.64,175.787 106.88,134.827 106.88,84.16C106.88,75.627 107.947,67.52 109.867,59.733C123.413,69.867 174.933,84.053 272.533,59.733C274.548,67.755 275.551,75.996 275.52,84.267C275.52,134.827 237.76,175.787 191.253,175.787Z" style="fill-opacity:0.2;fill-rule:nonzero;"/>
                        <path d="M146.133,325.333C151.04,275.84 230.4,234.24 230.4,234.24C228.601,241.911 225.537,249.229 221.333,255.893C219.733,258.453 221.333,261.76 224.107,261.973C298.773,267.84 394.987,187.2 394.987,187.2C415.253,213.333 438.72,249.6 450.667,261.76C452.373,263.467 455.147,262.08 455.04,259.52C450.56,88.533 285.867,54.613 174.293,92.16C72.213,126.613 -12.8,259.947 58.027,357.333C61.973,344.853 76.907,320.747 104.96,323.733C109.653,324.8 122.027,330.133 134.4,342.933C136.213,344.96 151.467,350.4 146.133,325.333Z" style="fill:rgb(226,186,135);fill-rule:nonzero;"/>
                        <path d="M379.733,167.573C379.733,167.573 370.88,157.12 351.68,158.827C351.68,158.827 365.227,151.36 374.08,152.427C374.08,152.427 349.973,134.507 314.773,145.813C314.773,145.813 339.627,128.32 359.253,130.56C359.253,130.56 338.347,121.387 325.12,123.52C325.12,123.52 335.573,110.507 349.227,110.933C349.227,110.933 338.347,91.733 321.493,85.653C321.493,85.653 355.2,95.253 364.16,102.187C383.68,110.507 401.813,134.933 401.813,134.933C395.733,131.413 386.133,132.267 386.133,132.267C401.813,141.867 413.867,159.787 413.867,159.787C406.187,154.453 397.013,156.267 397.013,156.267C406.221,165.846 412.958,177.526 416.64,190.293C414.613,184.107 400.213,176.747 400.213,176.747C404.021,184.984 406.333,193.833 407.04,202.88L394.987,187.2C394.987,187.2 370.453,207.68 364.053,210.347C364.053,210.347 382.507,191.147 383.68,182.4C383.68,182.4 355.947,189.867 333.973,192.853C333.973,192.853 364.907,169.387 379.733,167.573Z" style="fill-opacity:0.1;fill-rule:nonzero;"/>
                    </g>
                </g>
            </g>
            <g transform="matrix(-0.384107,0,0,0.40679,482.652,-711.335)">
                <g>
                    <g transform="matrix(0.85775,0,0,0.85427,55.4667,50.1333)">
                        <path d="M281.6,41.173C281.6,41.173 421.76,63.147 411.093,263.147C411.093,263.893 427.307,274.773 428.587,275.947C440.424,286.211 449.086,299.647 453.547,314.667C468.373,369.387 415.467,425.813 372.693,440.747C356.642,446.236 339.84,449.222 322.88,449.6C212.907,452.8 67.2,382.72 59.733,245.867C58.698,215.232 64.188,184.725 75.84,156.373C75.84,156.48 137.067,4.373 281.6,41.173Z" style="fill:rgb(245,215,177);fill-rule:nonzero;"/>
                        <path d="M414.613,265.28C413.118,268.895 411.975,272.646 411.2,276.48C409.65,288.07 412.93,299.802 420.267,308.907C428.853,319.524 441.812,325.689 455.467,325.653C452.053,291.84 424.533,271.573 414.613,265.28ZM217.067,354.133C243.093,348.587 259.307,321.067 253.227,292.8C247.147,264.533 221.013,246.187 194.987,251.733C168.96,257.387 152.853,284.8 158.933,313.173C165.013,341.44 191.04,359.787 217.067,354.24L217.067,354.133Z" style="fill:rgb(220,36,0);fill-opacity:0.1;fill-rule:nonzero;"/>
                        <path d="M344.533,275.093C344.533,275.093 366.827,253.867 384,273.813L344.533,275.093Z" style="fill-opacity:0.1;fill-rule:nonzero;"/>
                        <path d="M137.28,380.693C63.253,417.813 -3.947,324.693 17.6,272.32C31.36,238.827 71.36,236.267 94.507,266.773C108.541,285.76 119.055,307.113 125.547,329.813" style="fill:rgb(245,215,177);fill-rule:nonzero;"/>
                        <path d="M76.267,297.6C85.867,307.2 93.44,321.6 102.933,329.6C101.12,316.267 98.347,301.867 91.84,289.813C85.227,277.44 73.173,267.413 60.907,268.16C45.76,269.227 33.28,286.933 31.68,302.933C32.747,293.333 51.947,286.933 59.307,287.787C70.827,309.547 75.307,352.427 75.307,352.427C84.907,328.213 81.067,309.013 76.373,297.493L76.267,297.6Z" style="fill-opacity:0.1;fill-rule:nonzero;"/>
                    </g>
                    <g transform="matrix(0.85472,0,0,0.855,20.2667,-18.1333)">
                        <path d="M419.52,391.467C422.72,393.28 445.227,365.013 460.267,373.653C465.28,376.533 469.12,381.44 472,386.773C478.4,398.507 480.533,412.8 478.08,426.027C473.881,444.136 462.777,459.91 447.147,469.973C407.253,497.173 375.68,492.053 333.227,476.373C299.733,463.893 254.293,438.4 263.68,392.427C280.32,311.36 419.52,391.36 419.52,391.36L419.52,391.467Z" style="fill:rgb(135,60,65);fill-rule:nonzero;"/>
                        <path d="M304.32,386.133C315.2,392.96 328.32,393.6 340.16,390.933C342.4,390.4 344.213,392.32 344.747,394.56C350.507,416.96 383.147,428.693 399.68,414.293C400.96,413.227 403.2,412.907 404.48,414.187C413.333,422.507 427.52,424.853 437.973,419.093C452.693,411.093 452.587,388.587 448.64,372.907C435.627,376.853 421.973,392.853 419.52,391.36C419.52,391.36 334.08,342.293 289.067,360C289.599,370.692 295.292,380.486 304.32,386.24L304.32,386.133Z" style="fill:white;fill-rule:nonzero;"/>
                        <path d="M426.987,473.387C403.52,451.947 374.827,439.893 345.707,431.467C320.747,424.107 292.693,419.413 267.413,426.667C279.147,451.733 309.227,467.413 333.227,476.373C370.347,490.133 399.147,495.787 432.427,478.72C430.613,476.907 428.907,475.093 426.987,473.387Z" style="fill:rgb(238,126,139);fill-rule:nonzero;"/>
                    </g>
                    <g transform="matrix(0.85472,0,0,0.855,20.2667,-18.1333)">
                        <path d="M353.28,320.533C353.28,333.227 346.667,343.467 332.907,341.333C322.987,338.667 316.373,331.733 316.373,318.4C316.373,304.533 324.587,295.467 332.907,295.467C344.213,295.467 353.28,307.84 353.173,320.533L353.28,320.533ZM446.933,320.32C446.933,328.853 443.093,337.92 433.28,336.853C424.96,336 422.933,325.12 422.933,319.787C422.933,310.507 427.627,301.653 434.453,301.653C441.707,301.653 446.933,311.787 446.933,320.32Z" style="fill:rgb(42,18,0);fill-rule:nonzero;"/>
                        <path d="M359.467,260.48C345.697,253.91 329.55,254.468 316.267,261.973C312,264.427 309.227,270.187 311.467,275.093C313.493,279.573 318.933,282.453 323.413,279.893C324.8,279.04 326.187,278.4 327.68,277.76C328.107,277.547 329.28,277.333 329.707,277.013L330.347,276.8C332.619,276.206 334.939,275.813 337.28,275.627L339.307,275.627C341.568,275.702 343.818,275.988 346.027,276.48L348.16,277.12C349.547,277.547 350.933,278.187 352.427,278.827C356.693,280.96 362.667,277.973 364.267,273.173C366.08,267.84 363.947,262.72 359.36,260.48L359.467,260.48ZM451.733,265.067C443.84,260.8 434.667,259.733 426.56,262.187C424.427,262.827 422.293,264.747 421.44,266.88C420.373,269.013 420.373,272 421.227,274.347C422.125,276.761 423.869,278.771 426.133,280C428.298,281.136 430.818,281.404 433.173,280.747L434.347,280.427L438.187,280.427C439.68,280.533 441.173,280.96 442.667,281.493L444.16,282.133C446.293,283.307 449.067,283.627 451.307,282.88C453.44,282.24 455.573,280.427 456.427,278.187C457.28,276.053 457.6,273.28 456.64,270.827C455.573,268.373 454.08,266.347 451.733,265.067Z" style="fill:rgb(113,71,45);fill-rule:nonzero;"/>
                    </g>
                    <g transform="matrix(0.85472,0,0,0.85667,19.2,-16)">
                        <path d="M370.133,180.267C378.667,219.52 423.147,238.187 444.267,242.667C451.52,267.84 453.333,319.253 453.333,341.333C468.143,348.982 480.522,360.622 489.067,374.933C486.405,365.099 486.777,354.686 490.133,345.067C491.2,340.373 492.693,335.04 493.867,328C497.173,308.053 476.48,282.347 465.493,268.587C464.107,266.88 462.827,265.387 461.867,264C457.493,258.24 458.88,245.867 460.373,232.107C462.08,217.707 463.893,201.813 459.2,190.933C450.133,169.6 420.8,150.933 405.333,149.333C398.933,148.693 395.307,144.64 390.08,138.987C382.613,130.773 371.733,118.933 345.067,108.267C318.007,97.939 287.827,99.37 261.867,112.213C157.973,121.067 120,227.413 117.867,232.853L117.867,233.067C106.468,261.51 101.232,292.051 102.507,322.667C143.147,329.707 162.347,373.227 166.933,394.133C166.933,394.133 178.987,394.88 181.867,392.533C196.8,384.747 223.36,352.64 210.133,286.933C203.733,257.067 208,233.28 260.267,196.267C292.693,173.333 337.067,173.547 370.133,180.267ZM483.2,460.8C487.467,453.013 496.853,432.747 498.133,416.533C508.45,426.392 515.364,439.285 517.867,453.333C518.123,463.715 515.342,473.949 509.867,482.773C506.347,489.707 503.36,495.787 504.533,500.8C506.667,509.76 511.467,515.52 513.6,517.333C498.987,523.947 460.16,533.333 427.733,512C438.4,506.667 465.067,488.107 483.2,460.8Z" style="fill:rgb(96,93,228);fill-rule:nonzero;"/>
                        <path d="M370.133,180.267C361.067,159.467 326.4,116.907 260.267,113.067L261.867,112.213C157.973,121.067 120,227.413 117.867,232.853L117.867,233.067C106.468,261.51 101.232,292.051 102.507,322.667C143.147,329.707 162.347,373.227 166.933,394.133C166.933,394.133 178.987,394.88 181.867,392.533C196.8,384.747 223.36,352.64 210.133,286.933C203.733,257.067 208,233.28 260.267,196.267C292.693,173.333 337.067,173.547 370.133,180.267Z" style="fill-opacity:0.3;fill-rule:nonzero;"/>
                        <path d="M476.8,358.827C474.667,353.813 475.733,349.333 477.12,344.107C477.867,341.12 478.613,338.027 478.933,334.4C479.787,325.013 476.8,313.067 475.2,308.267C475.2,313.387 474.667,325.867 472.533,334.4C471.127,339.646 468.658,344.547 465.28,348.8C469.547,352 473.493,355.52 476.693,358.827L476.8,358.827ZM501.867,521.387L503.467,519.467C490.133,499.733 497.6,480.533 503.467,467.733C506.937,460.301 506.937,451.699 503.467,444.267C503.467,457.707 499.947,462.293 495.04,468.373C485.844,478.925 480.965,492.57 481.387,506.56C481.387,511.467 481.387,514.24 478.933,513.067C474.667,510.933 472.853,505.813 472.533,503.467C471.335,510.693 471.552,518.083 473.173,525.227C484.053,525.227 493.973,523.627 501.973,521.387L501.867,521.387ZM402.133,207.467C391.123,197.987 382.684,185.877 377.6,172.267C381.333,179.2 394.667,196.053 418.133,207.467C441.6,218.88 450.347,231.787 451.733,236.8C446.72,227.84 436.373,223.68 425.28,219.307C417.387,216.107 409.067,212.907 402.133,207.467Z" style="fill-opacity:0.2;fill-rule:nonzero;"/>
                    </g>
                    <g transform="matrix(0.85472,0,0,0.85667,14.9333,-12.8)">
                        <path d="M276.053,311.573C280,328.533 288,343.893 301.973,349.227C332.907,360.96 377.707,352.427 384.107,345.493C388.014,338.737 390.789,331.386 392.32,323.733C410.453,313.493 426.24,319.04 431.467,322.667C432.853,330.88 434.24,337.6 435.413,339.52C438.613,345.493 461.333,352.853 477.013,342.72C492.8,332.587 493.333,271.253 490.347,264.853C486.72,257.067 430.933,260.8 428.587,275.52C426.987,280 427.84,293.867 429.44,307.52C420.907,304.747 409.067,303.573 395.947,308.053C399.147,292.267 400.533,276.48 397.44,271.36C392,252.8 278.4,244.8 275.84,259.093C273.173,266.56 271.893,282.133 273.707,298.453C227.307,292.48 150.827,282.88 133.973,281.067C124.356,280.582 114.8,282.879 106.453,287.68C101.44,290.56 96.747,294.613 93.547,300.373C90.24,306.133 88.747,313.173 89.6,321.28L102.4,319.787C101.653,314.133 102.827,309.867 104.533,306.667C106.453,303.467 109.333,300.8 112.853,298.773C120.107,294.507 128.853,293.44 132.693,293.867C149.76,295.68 229.973,305.707 276.053,311.573Z" style="fill:rgb(89,87,87);fill-rule:nonzero;"/>
                        <path d="M348.8,254.293C337.387,252.8 325.333,251.947 314.453,251.84L271.68,311.04L276.053,311.573C278.08,320.107 281.067,328.107 285.333,334.827L348.8,254.293ZM385.707,262.613C378.263,259.893 370.587,257.857 362.773,256.533L292.693,343.467C295.467,345.813 298.56,347.733 301.973,349.12C304.533,350.08 307.093,350.827 309.76,351.573L385.707,262.507L385.707,262.613ZM491.093,298.347C492.16,284.48 491.84,271.467 490.773,266.56L434.24,336.64L435.307,339.52C436.907,342.293 442.56,345.28 449.707,346.773L491.093,298.347Z" style="fill:white;fill-opacity:0.2;fill-rule:nonzero;"/>
                    </g>
                </g>
            </g>
            <g transform="matrix(0.397927,-0.127286,0.120188,0.421426,-8.72617,-692.202)">
                <g transform="matrix(0.849587,0,0,1.06283,67.0583,-343.109)">
                    <path d="M384.604,153.589C399.915,153.589 412.327,163.51 412.327,175.749L412.327,319.605C412.327,331.844 399.915,341.766 384.604,341.766C351.53,341.766 296.568,341.766 263.494,341.766C248.183,341.766 235.771,331.844 235.771,319.605L235.771,175.749C235.771,163.51 248.183,153.589 263.494,153.589L384.604,153.589Z" style="fill:rgb(70,167,88);"/>
                </g>
                <g transform="matrix(14.5893,0,0,14.5893,-9597.68,-3542.58)">
                    <g transform="matrix(12,0,0,12,684.561,241.617)">
                    </g>
                    <text x="677.889px" y="241.617px" style="font-family:'DINRoundPro-Black', 'DIN Round Pro', sans-serif;font-weight:900;font-size:12px;fill:white;">1</text>
                </g>
            </g>
            <g transform="matrix(0.415373,-0.0169552,0.0160097,0.439902,190.561,-799.4)">
                <g transform="matrix(0.849587,0,0,1.06283,67.0583,-343.109)">
                    <path d="M384.604,153.589C399.915,153.589 412.327,163.51 412.327,175.749L412.327,319.605C412.327,331.844 399.915,341.766 384.604,341.766L263.494,341.766C248.183,341.766 235.771,331.844 235.771,319.605L235.771,175.749C235.771,163.51 248.183,153.589 263.494,153.589C296.568,153.589 351.53,153.589 384.604,153.589Z" style="fill:rgb(70,167,88);"/>
                </g>
                <g transform="matrix(14.5893,0,0,14.5893,-9597.68,-3542.58)">
                    <g transform="matrix(12,0,0,12,684.561,241.617)">
                    </g>
                    <text x="677.889px" y="241.617px" style="font-family:'DINRoundPro-Black', 'DIN Round Pro', sans-serif;font-weight:900;font-size:12px;fill:white;">1</text>
                </g>
            </g>
            <g transform="matrix(0.402263,0.11095,-0.104763,0.426018,346.45,-664.585)">
                <g transform="matrix(0.849587,0,0,1.06283,67.0583,-343.109)">
                    <path d="M384.604,153.589C399.915,153.589 412.327,163.51 412.327,175.749L412.327,319.605C412.327,331.844 399.915,341.766 384.604,341.766L263.494,341.766C248.183,341.766 235.771,331.844 235.771,319.605L235.771,175.749C235.771,163.51 248.183,153.589 263.494,153.589L384.604,153.589Z" style="fill:rgb(70,167,88);"/>
                </g>
                <g transform="matrix(14.5893,0,0,14.5893,-9597.68,-3542.58)">
                    <g transform="matrix(12,0,0,12,684.561,241.617)">
                    </g>
                    <text x="677.889px" y="241.617px" style="font-family:'DINRoundPro-Black', 'DIN Round Pro', sans-serif;font-weight:900;font-size:12px;fill:white;">1</text>
                </g>
            </g>
        </g>
    </g>
</svg>
