<?xml version="1.0" encoding="UTF-8" standalone="no"?>
<!DOCTYPE svg PUBLIC "-//W3C//DTD SVG 1.1//EN" "http://www.w3.org/Graphics/SVG/1.1/DTD/svg11.dtd">
<svg width="100%" height="100%" viewBox="0 0 376 401" version="1.1" xmlns="http://www.w3.org/2000/svg" xmlns:xlink="http://www.w3.org/1999/xlink" xml:space="preserve" xmlns:serif="http://www.serif.com/" style="fill-rule:evenodd;clip-rule:evenodd;stroke-linejoin:round;stroke-miterlimit:2;">
    <g transform="matrix(1,0,0,1,-1160,-1101)">
        <g id="wait3" transform="matrix(0.612834,0,0,0.578662,1160.71,1638.29)">
            <rect x="0" y="-928.01" width="611.911" height="691.25" style="fill:none;"/>
            <g transform="matrix(1.36715,0,0,1.44789,-574.645,-2616.84)">
                <path d="M563.09,1419.04C559.282,1419.67 555.372,1420 551.386,1420C511.987,1420 480,1388.01 480,1348.61C480,1309.21 511.987,1277.23 551.386,1277.23C552.426,1277.23 553.461,1277.25 554.491,1277.29C552.843,1271.82 551.957,1266.01 551.957,1260C551.957,1226.88 578.842,1200 611.957,1200C627.34,1200 641.379,1205.8 652.003,1215.34C668.56,1200.78 690.268,1191.96 714.022,1191.96C764.938,1191.96 806.455,1232.52 807.999,1283.06C832.713,1293.87 850,1318.55 850,1347.23C850,1385.86 818.634,1417.23 780,1417.23C779.654,1417.23 779.309,1417.23 778.965,1417.22C773.002,1452.83 742.008,1480 704.718,1480C681.734,1480 661.142,1469.68 647.329,1453.42C639.13,1457.63 629.84,1460 620,1460C593.54,1460 571.058,1442.84 563.09,1419.04Z" style="fill:rgb(255,238,0);fill-opacity:0.25;"/>
            </g>
            <g transform="matrix(0.708069,0,0,0.749883,-14.8479,-592.555)">
                <g>
                    <g transform="matrix(0.85775,0,0,0.85427,55.4667,50.1333)">
                        <path d="M281.6,41.173C281.6,41.173 421.76,63.147 411.093,263.147C411.093,263.893 427.307,274.773 428.587,275.947C440.424,286.211 449.086,299.647 453.547,314.667C468.373,369.387 415.467,425.813 372.693,440.747C356.642,446.236 339.84,449.222 322.88,449.6C212.907,452.8 67.2,382.72 59.733,245.867C58.698,215.232 64.188,184.725 75.84,156.373C75.84,156.48 137.067,4.373 281.6,41.173Z" style="fill:rgb(239,204,159);fill-rule:nonzero;"/>
                        <path d="M414.613,265.28C413.118,268.895 411.975,272.646 411.2,276.48C409.65,288.07 412.93,299.802 420.267,308.907C428.853,319.524 441.812,325.689 455.467,325.653C452.053,291.84 424.533,271.573 414.613,265.28ZM217.067,354.133C243.093,348.587 259.307,321.067 253.227,292.8C247.147,264.533 221.013,246.187 194.987,251.733C168.96,257.387 152.853,284.8 158.933,313.173C165.013,341.44 191.04,359.787 217.067,354.24L217.067,354.133Z" style="fill:rgb(220,36,0);fill-opacity:0.1;fill-rule:nonzero;"/>
                        <path d="M344.533,275.093C344.533,275.093 366.827,253.867 384,273.813L344.533,275.093Z" style="fill-opacity:0.1;fill-rule:nonzero;"/>
                        <path d="M137.28,380.693C63.253,417.813 -3.947,324.693 17.6,272.32C31.36,238.827 71.36,236.267 94.507,266.773C108.541,285.76 119.055,307.113 125.547,329.813" style="fill:rgb(239,204,159);fill-rule:nonzero;"/>
                        <path d="M76.267,297.6C85.867,307.2 93.44,321.6 102.933,329.6C101.12,316.267 98.347,301.867 91.84,289.813C85.227,277.44 73.173,267.413 60.907,268.16C45.76,269.227 33.28,286.933 31.68,302.933C32.747,293.333 51.947,286.933 59.307,287.787C70.827,309.547 75.307,352.427 75.307,352.427C84.907,328.213 81.067,309.013 76.373,297.493L76.267,297.6Z" style="fill-opacity:0.1;fill-rule:nonzero;"/>
                    </g>
                    <g transform="matrix(0.85472,0,0,0.855,20.2667,-18.1333)">
                        <path d="M419.52,391.467C422.72,393.28 445.227,365.013 460.267,373.653C465.28,376.533 469.12,381.44 472,386.773C478.4,398.507 480.533,412.8 478.08,426.027C473.881,444.136 462.777,459.91 447.147,469.973C407.253,497.173 375.68,492.053 333.227,476.373C299.733,463.893 254.293,438.4 263.68,392.427C280.32,311.36 419.52,391.36 419.52,391.36L419.52,391.467Z" style="fill:rgb(135,60,65);fill-rule:nonzero;"/>
                        <path d="M304.32,386.133C315.2,392.96 328.32,393.6 340.16,390.933C342.4,390.4 344.213,392.32 344.747,394.56C350.507,416.96 383.147,428.693 399.68,414.293C400.96,413.227 403.2,412.907 404.48,414.187C413.333,422.507 427.52,424.853 437.973,419.093C452.693,411.093 452.587,388.587 448.64,372.907C435.627,376.853 421.973,392.853 419.52,391.36C419.52,391.36 334.08,342.293 289.067,360C289.599,370.692 295.292,380.486 304.32,386.24L304.32,386.133Z" style="fill:white;fill-rule:nonzero;"/>
                        <path d="M426.987,473.387C403.52,451.947 374.827,439.893 345.707,431.467C320.747,424.107 292.693,419.413 267.413,426.667C279.147,451.733 309.227,467.413 333.227,476.373C370.347,490.133 399.147,495.787 432.427,478.72C430.613,476.907 428.907,475.093 426.987,473.387Z" style="fill:rgb(238,126,139);fill-rule:nonzero;"/>
                    </g>
                    <g transform="matrix(0.85472,0,0,0.855,20.2667,-18.1333)">
                        <path d="M365.867,314.027C365.867,329.813 355.84,342.613 335.253,339.947C320.32,336.747 312.533,330.56 312.533,314.027C312.533,296.747 320.853,285.227 335.36,282.88C357.653,279.36 365.867,298.24 365.76,314.027L365.867,314.027ZM447.147,310.293C447.147,322.88 441.92,336.32 428.8,334.827C417.813,333.44 414.933,317.44 414.933,309.547C414.933,295.68 421.333,282.773 430.4,282.667C440.213,282.667 447.147,297.707 447.147,310.293Z" style="fill:rgb(42,18,0);fill-rule:nonzero;"/>
                        <path d="M429.013,292.267C429.227,291.2 430.72,291.093 431.04,292.16L433.813,301.547C434.027,302.08 434.453,302.4 434.88,302.293L440.32,301.44C441.173,301.44 441.813,302.293 441.387,303.04L436.907,310.613C436.753,310.87 436.714,311.18 436.8,311.467L439.573,320.853C439.787,321.92 438.507,322.773 437.76,321.92L433.813,317.973C433.373,317.597 432.703,317.645 432.32,318.08L426.24,325.547C425.6,326.293 424.32,325.867 424.427,324.8L425.173,313.813C425.173,313.493 425.173,313.28 424.96,313.067L418.987,306.987C418.347,306.453 418.773,305.28 419.627,305.173L425.173,304.32C425.6,304.32 425.92,304 426.027,303.467L429.013,292.267ZM339.2,290.88C339.344,290.443 339.754,290.146 340.213,290.146C340.673,290.146 341.083,290.443 341.227,290.88L346.24,303.147C346.453,303.573 346.88,303.893 347.307,303.787L357.653,302.507C357.69,302.503 357.727,302.501 357.764,302.501C358.35,302.501 358.831,302.982 358.831,303.568C358.831,303.801 358.755,304.028 358.613,304.213L350.933,312.96C350.673,313.249 350.591,313.659 350.72,314.027L355.52,325.653C355.574,325.783 355.601,325.921 355.601,326.061C355.601,326.647 355.12,327.128 354.534,327.128C354.315,327.128 354.1,327.06 353.92,326.933L344.96,320.853C344.559,320.6 344.034,320.644 343.68,320.96L331.413,331.307C331.211,331.548 330.911,331.688 330.596,331.688C330.011,331.688 329.53,331.206 329.53,330.621C329.53,330.491 329.554,330.362 329.6,330.24L331.413,317.12C331.491,316.712 331.324,316.295 330.987,316.053L321.387,309.653C321.105,309.454 320.937,309.129 320.937,308.783C320.937,308.269 321.308,307.825 321.813,307.733L332.267,306.347C332.693,306.347 333.013,306.027 333.12,305.707L339.2,290.773L339.2,290.88Z" style="fill:white;fill-rule:nonzero;"/>
                        <path d="M353.28,249.067C339.093,244.8 322.88,248.32 311.04,257.92C307.2,261.12 305.493,267.2 308.48,271.68C311.253,275.733 317.013,277.653 321.067,274.347C322.347,273.28 323.52,272.427 324.907,271.573L326.827,270.507L327.36,270.187C329.522,269.169 331.771,268.348 334.08,267.733L336,267.413C338.26,267.091 340.546,266.984 342.827,267.093C343.573,267.093 344.213,267.307 344.96,267.413C346.453,267.627 347.947,268.053 349.44,268.48C354.027,269.76 359.467,265.813 360.213,260.8C361.067,255.253 358.08,250.56 353.28,249.067ZM450.88,259.947C443.947,254.187 435.307,251.413 426.773,252.053C424.379,252.341 422.212,253.618 420.8,255.573C419.331,257.686 418.72,260.281 419.093,262.827C419.456,265.399 420.747,267.751 422.72,269.44C424.635,271.003 427.082,271.768 429.547,271.573L430.72,271.573C432,271.573 433.173,271.893 434.453,272.213C435.84,272.64 437.227,273.28 438.72,274.133L440,275.2C441.904,276.784 444.36,277.551 446.827,277.333C448.96,277.12 451.52,275.733 452.8,273.813C454.08,271.68 454.933,269.12 454.507,266.56C453.973,264 452.907,261.653 450.88,259.947Z" style="fill:rgb(113,71,45);fill-rule:nonzero;"/>
                    </g>
                    <g transform="matrix(0.85472,0,0,0.85667,19.2,-16)">
                        <path d="M405.227,224C415.352,234.282 429.576,239.494 443.947,238.187C449.28,256.64 453.013,277.653 454.187,302.08C471.174,294.422 482.146,277.441 482.146,258.807C482.146,247.201 477.889,235.989 470.187,227.307C481.839,217.616 488.573,203.209 488.533,188.053C488.762,164.144 471.855,143.234 448.427,138.453C448.748,136.047 448.909,133.623 448.909,131.196C448.909,101.38 424.587,76.749 394.773,76.373C386.667,76.373 378.987,78.187 372.053,81.493C364.077,60.882 344.233,47.144 322.133,46.933C303.36,46.933 286.933,56.747 277.227,71.68C267.788,64.396 256.189,60.454 244.267,60.48C221.867,60.48 202.667,74.24 194.24,93.76C187.52,90.56 179.947,88.853 172.053,88.853C142.398,89.258 118.193,113.702 118.08,143.36C89.542,146.079 67.487,170.334 67.487,199.001C67.487,212.406 72.309,225.372 81.067,235.52C70.257,246.02 64.15,260.466 64.15,275.536C64.15,305.64 88.518,330.592 118.613,331.307C120.64,331.307 122.56,331.307 124.587,330.987C150.293,346.453 163.307,377.493 166.933,394.24C166.933,394.24 178.987,394.88 181.867,392.64C193.6,386.453 212.8,365.013 213.653,323.84C228.77,309.144 234.316,287.084 227.947,266.987C244.563,262.244 258.012,249.942 264.213,233.813C287.267,244.206 314.691,236.959 329.6,216.533C338.776,230.106 354.13,238.258 370.513,238.258C383.505,238.258 395.986,233.132 405.227,224Z" style="fill:rgb(213,108,12);fill-rule:nonzero;"/>
                    </g>
                    <g transform="matrix(0.85472,0,0,0.85667,14.9333,-12.8)">
                        <g>
                            <path d="M510.933,302.187L458.667,300.267L458.133,289.067L511.253,291.52L511.04,302.187L510.933,302.187Z" style="fill:rgb(137,99,7);"/>
                            <path d="M324.267,235.413C295.253,240 275.2,269.76 280.32,302.613C285.547,335.573 313.813,357.653 342.827,353.067C371.84,348.48 392,318.72 386.88,285.867C381.653,253.013 353.387,230.827 324.373,235.413L324.267,235.413ZM269.013,291.2C269.547,258.56 291.307,229.973 322.667,225.067C358.187,219.413 391.36,246.4 397.333,284.373L400.853,283.093C405.345,281.717 410.106,281.461 414.72,282.347C415.36,269.013 419.2,256.747 425.6,247.147C432.719,235.097 445.255,227.218 459.2,226.027C473.346,225.765 486.811,232.221 495.467,243.413C505.53,255.779 511.431,271.015 512.32,286.933C513.718,302.727 509.976,318.557 501.653,332.053C494.488,344.091 481.91,351.932 467.947,353.067C453.819,353.353 440.357,346.939 431.68,335.787C421.842,323.71 415.99,308.874 414.933,293.333C411.307,291.84 407.467,292.053 403.84,293.12C401.6,293.76 399.573,294.72 398.187,295.467C398.507,328.853 376.533,358.4 344.533,363.52C308.907,369.067 275.84,342.08 269.867,304.213C269.748,303.433 269.641,302.65 269.547,301.867L177.387,286.933C161.588,284.37 145.418,285.317 130.027,289.707C117.227,293.973 110.507,309.76 110.293,319.573L99.733,319.36C100.053,303.04 111.893,284.587 126.72,279.573C141.44,274.667 160.533,273.92 178.773,276.373L178.773,276.48L269.013,290.987L269.013,291.2ZM434.347,253.013C427.325,264.521 424.183,277.986 425.387,291.413C426.453,306.453 431.893,319.68 439.68,328.747C447.467,338.027 457.387,342.933 467.413,342.4C477.333,341.867 486.4,336 492.8,326.187C499.844,314.649 502.987,301.143 501.76,287.68C500.693,272.64 495.36,259.413 487.467,250.347C479.68,241.173 469.867,236.16 459.733,236.693C449.813,237.227 440.853,243.093 434.347,253.013Z" style="fill:rgb(197,144,15);"/>
                        </g>
                    </g>
                </g>
            </g>
            <g transform="matrix(-0.329468,0,0,0.347509,509.256,-870.24)">
                <g>
                    <path d="M433.596,270.437L433.248,270.147C428.579,265.941 424.206,262.718 420.89,260.484C417.485,258.19 412.866,259.104 410.582,262.522C408.297,265.941 409.207,270.579 412.611,272.873C415.488,274.811 419.283,277.609 423.335,281.26C423.463,281.375 423.595,281.486 423.731,281.592L423.744,281.603C423.793,281.645 423.841,281.688 423.89,281.73C426.986,284.43 431.682,284.098 434.37,280.99C437.059,277.881 436.728,273.166 433.633,270.467C433.621,270.456 433.608,270.447 433.596,270.437ZM398.37,157.715C397.198,158.372 396.214,159.342 395.538,160.533C394.557,162.26 394.304,164.31 394.834,166.226C395.308,167.936 395.927,170.403 396.611,173.348C397.541,177.358 401.539,179.854 405.532,178.919C409.525,177.985 412.012,173.971 411.081,169.961C411.025,169.723 410.971,169.488 410.916,169.256C413.785,167.669 415.343,164.309 414.549,160.985C413.938,158.424 413.29,155.91 412.609,153.442C411.513,149.475 407.416,147.147 403.465,148.247C399.514,149.346 397.195,153.46 398.291,157.428C398.317,157.523 398.343,157.619 398.37,157.715ZM22.057,251.998C19.181,254.932 19.219,259.659 22.141,262.546C25.064,265.434 29.771,265.396 32.647,262.462C34.368,260.706 36.228,259.189 38.198,257.913C40.358,256.515 41.645,254.095 41.601,251.516C41.56,249.115 41.559,246.655 41.602,244.142C41.672,240.026 38.4,236.627 34.301,236.556C30.201,236.486 26.816,239.771 26.746,243.887C26.723,245.215 26.712,246.53 26.713,247.825C25.096,249.094 23.54,250.484 22.057,251.998ZM28.261,220.36C27.809,224.452 30.75,228.143 34.825,228.597C38.9,229.051 42.576,226.098 43.029,222.007C43.559,217.216 44.242,212.316 45.093,207.34C45.787,203.282 43.07,199.422 39.029,198.726C34.988,198.029 31.143,200.757 30.449,204.815C29.547,210.089 28.823,215.282 28.261,220.36ZM35.453,181.804C34.398,185.782 36.758,189.873 40.72,190.932C44.682,191.992 48.755,189.623 49.811,185.645C51.059,180.941 52.466,176.212 54.043,171.48C55.345,167.576 53.245,163.346 49.357,162.039C45.469,160.732 41.256,162.84 39.954,166.744C38.276,171.775 36.78,176.803 35.453,181.804ZM48.513,144.74C46.831,148.494 48.5,152.914 52.239,154.604C55.978,156.294 60.38,154.617 62.062,150.863C64.053,146.424 66.211,142.015 68.549,137.658C70.493,134.034 69.142,129.506 65.532,127.553C61.922,125.601 57.413,126.958 55.468,130.582C52.962,135.254 50.647,139.98 48.513,144.74ZM67.83,110.362C65.486,113.74 66.316,118.393 69.68,120.746C73.045,123.099 77.679,122.266 80.022,118.887C82.78,114.912 85.714,111.012 88.835,107.208C91.442,104.03 90.988,99.325 87.823,96.708C84.658,94.09 79.972,94.546 77.366,97.724C73.989,101.84 70.813,106.06 67.83,110.362ZM93.558,80.327C90.575,83.15 90.435,87.875 93.248,90.871C96.06,93.867 100.766,94.007 103.749,91.183C107.238,87.881 110.906,84.69 114.759,81.624C117.973,79.067 118.514,74.372 115.968,71.145C113.422,67.918 108.745,67.374 105.531,69.931C101.341,73.265 97.353,76.736 93.558,80.327ZM125.033,56.361C121.521,58.487 120.389,63.075 122.505,66.601C124.622,70.127 129.191,71.264 132.703,69.138C136.795,66.662 141.056,64.314 145.492,62.107C149.165,60.279 150.67,55.8 148.849,52.111C147.029,48.422 142.568,46.911 138.894,48.739C134.086,51.132 129.468,53.677 125.033,56.361ZM160.664,39.47C156.804,40.857 154.791,45.13 156.172,49.006C157.554,52.882 161.809,54.903 165.67,53.516C170.175,51.898 174.831,50.411 179.643,49.064C183.593,47.958 185.905,43.841 184.804,39.876C183.704,35.91 179.603,33.588 175.653,34.693C170.492,36.138 165.497,37.734 160.664,39.47ZM198.59,29.497C194.551,30.209 191.849,34.079 192.558,38.134C193.267,42.189 197.122,44.903 201.16,44.191C205.897,43.355 210.765,42.644 215.765,42.063C219.838,41.59 222.763,37.886 222.292,33.796C221.821,29.707 218.132,26.77 214.059,27.243C208.762,27.858 203.607,28.612 198.59,29.497ZM237.368,25.49C233.27,25.639 230.064,29.1 230.213,33.214C230.361,37.328 233.808,40.548 237.906,40.399C240.35,40.31 242.822,40.25 245.324,40.219C245.394,40.218 245.464,40.216 245.535,40.213C247.692,40.125 250.033,40.109 252.533,40.175C256.632,40.284 260.048,37.031 260.157,32.916C260.265,28.801 257.025,25.371 252.927,25.262C250.112,25.187 247.475,25.206 245.04,25.303C242.454,25.335 239.896,25.398 237.368,25.49ZM276.373,27.712C272.335,26.998 268.479,29.71 267.768,33.765C267.057,37.819 269.758,41.691 273.796,42.405C278.287,43.199 282.98,44.225 287.807,45.519C291.768,46.581 295.843,44.213 296.901,40.236C297.958,36.258 295.6,32.167 291.639,31.105C286.379,29.695 281.267,28.578 276.373,27.712ZM313.851,38.628C310.06,37.061 305.715,38.88 304.154,42.687C302.594,46.494 304.405,50.857 308.197,52.424C312.51,54.206 316.855,56.219 321.19,58.485C324.826,60.386 329.316,58.965 331.21,55.314C333.103,51.662 331.688,47.154 328.051,45.253C323.314,42.776 318.566,40.576 313.851,38.628ZM348.106,57.594C344.771,55.199 340.127,55.974 337.742,59.323C335.357,62.671 336.128,67.334 339.464,69.729C343.26,72.455 347,75.412 350.655,78.618C353.742,81.326 358.439,81.008 361.137,77.908C363.835,74.808 363.518,70.092 360.43,67.383C356.406,63.853 352.287,60.596 348.106,57.594ZM376.989,84.226C374.331,81.091 369.639,80.712 366.516,83.381C363.394,86.049 363.017,90.761 365.674,93.896C368.691,97.455 371.603,101.235 374.387,105.247C376.731,108.625 381.365,109.457 384.73,107.104C388.094,104.75 388.922,100.097 386.579,96.719C383.514,92.303 380.309,88.143 376.989,84.226ZM398.636,116.974C396.776,113.305 392.3,111.842 388.645,113.709C384.991,115.576 383.534,120.07 385.393,123.74C387.509,127.914 389.499,132.285 391.349,136.861C392.892,140.675 397.228,142.515 401.027,140.966C404.826,139.418 406.658,135.063 405.116,131.249C403.103,126.271 400.937,121.516 398.636,116.974ZM415.629,193.004C414.98,188.939 411.166,186.168 407.118,186.819C403.069,187.471 400.309,191.3 400.958,195.365C401.553,199.098 402.046,202.746 402.349,206.034C402.469,207.336 402.585,208.661 402.697,210.007C403.038,214.11 406.632,217.163 410.718,216.82C414.804,216.478 417.845,212.869 417.503,208.766C417.388,207.375 417.268,206.007 417.144,204.662C416.813,201.069 416.28,197.083 415.629,193.004ZM418.834,232.094C418.71,227.979 415.283,224.739 411.184,224.863C407.086,224.987 403.859,228.429 403.982,232.544C404.128,237.413 404.191,242.433 404.143,247.563C404.105,251.68 407.403,255.053 411.503,255.091C415.603,255.129 418.963,251.818 419.001,247.701C419.05,242.37 418.986,237.154 418.834,232.094ZM449.962,289.303C447.726,285.852 443.12,284.872 439.683,287.117C436.246,289.362 435.271,293.986 437.506,297.437C438.55,299.049 439.532,300.7 440.449,302.389C440.457,302.403 440.465,302.418 440.473,302.433C441.744,304.733 442.911,307.156 443.936,309.702C445.474,313.518 449.808,315.363 453.609,313.819C457.41,312.276 459.248,307.924 457.71,304.107C456.456,300.994 455.03,298.03 453.477,295.216C452.381,293.2 451.208,291.228 449.962,289.303ZM463.358,328.709C463.098,324.601 459.565,321.477 455.473,321.738C451.381,322 448.27,325.548 448.53,329.656C448.823,334.286 448.631,338.899 448.017,343.463C447.468,347.543 450.321,351.303 454.385,351.854C458.448,352.406 462.193,349.541 462.742,345.461C463.487,339.924 463.714,334.326 463.358,328.709ZM456.301,369.377C457.84,365.561 456.003,361.209 452.203,359.664C448.402,358.119 444.067,359.963 442.529,363.779C440.761,368.164 438.658,372.453 436.28,376.616C434.24,380.187 435.471,384.749 439.027,386.798C442.584,388.847 447.128,387.611 449.168,384.04C451.885,379.285 454.282,374.385 456.301,369.377ZM435.358,403.907C437.978,400.74 437.544,396.033 434.39,393.403C431.236,390.772 426.548,391.208 423.928,394.374C420.831,398.118 417.54,401.691 414.11,405.062C411.179,407.942 411.129,412.669 413.997,415.611C416.865,418.553 421.573,418.603 424.503,415.724C428.296,411.996 431.934,408.046 435.358,403.907ZM406.129,431.22C409.463,428.824 410.232,424.161 407.846,420.813C405.46,417.465 400.815,416.693 397.481,419.089C393.471,421.97 389.398,424.565 385.328,426.832C381.743,428.83 380.447,433.374 382.437,436.974C384.426,440.574 388.952,441.875 392.537,439.877C397.088,437.342 401.645,434.443 406.129,431.22ZM370.091,449.432C374.011,448.224 376.216,444.047 375.012,440.112C373.809,436.176 369.649,433.962 365.73,435.171C361.083,436.604 356.376,437.82 351.625,438.816C347.612,439.658 345.034,443.614 345.873,447.644C346.711,451.674 350.651,454.262 354.664,453.42C359.861,452.329 365.009,450.999 370.091,449.432ZM331.004,456.696C335.094,456.416 338.189,452.854 337.91,448.746C337.631,444.639 334.083,441.532 329.992,441.812C327.571,441.978 325.145,442.088 322.715,442.142C322.698,442.143 322.682,442.143 322.665,442.144C320.004,442.221 317.321,442.254 314.62,442.244C310.52,442.227 307.177,445.556 307.161,449.673C307.145,453.79 310.46,457.146 314.56,457.162C317.418,457.174 320.257,457.139 323.072,457.057C325.721,456.997 328.365,456.877 331.004,456.696ZM289.05,455.868C293.131,456.26 296.762,453.251 297.152,449.153C297.542,445.055 294.545,441.409 290.464,441.017C285.153,440.507 279.801,439.839 274.427,439.014C270.374,438.391 266.58,441.19 265.96,445.26C265.34,449.329 268.127,453.139 272.18,453.761C277.834,454.629 283.463,455.332 289.05,455.868ZM247.182,448.866C251.171,449.817 255.179,447.336 256.125,443.33C257.071,439.324 254.601,435.301 250.611,434.351C245.388,433.106 240.168,431.716 234.967,430.181C231.033,429.019 226.9,431.283 225.744,435.233C224.587,439.183 226.842,443.332 230.775,444.494C236.229,446.104 241.704,447.562 247.182,448.866ZM206.654,436.308C210.482,437.782 214.782,435.857 216.25,432.013C217.718,428.169 215.801,423.852 211.972,422.378C206.946,420.443 201.961,418.368 197.034,416.153C193.292,414.471 188.893,416.157 187.218,419.914C185.543,423.672 187.221,428.088 190.964,429.77C196.139,432.096 201.374,434.276 206.654,436.308ZM168.15,418.325C171.735,420.323 176.261,419.022 178.251,415.423C180.241,411.823 178.945,407.279 175.36,405.281C170.655,402.658 166.029,399.898 161.499,397C158.041,394.787 153.444,395.81 151.241,399.282C149.038,402.754 150.057,407.369 153.515,409.582C158.298,412.641 163.182,415.556 168.15,418.325ZM132.62,394.754C135.848,397.293 140.521,396.723 143.05,393.483C145.579,390.242 145.012,385.55 141.784,383.01C139.674,381.35 137.593,379.656 135.545,377.927C133.446,376.155 130.546,375.688 128,376.713C125.461,377.734 122.935,378.592 120.424,379.294C116.474,380.398 114.16,384.514 115.259,388.48C116.359,392.446 120.458,394.77 124.408,393.666C126.046,393.209 127.69,392.696 129.336,392.126C130.423,393.01 131.518,393.887 132.62,394.754ZM95.53,396.331C99.613,396.711 103.235,393.691 103.613,389.591C103.991,385.492 100.983,381.856 96.9,381.476C91.572,380.981 86.397,379.826 81.419,378.116C77.54,376.783 73.312,378.863 71.985,382.758C70.658,386.654 72.729,390.898 76.609,392.231C82.692,394.321 89.019,395.726 95.53,396.331ZM51.324,378.77C54.624,381.213 59.279,380.507 61.713,377.194C64.146,373.881 63.443,369.207 60.143,366.763C55.771,363.525 51.675,359.871 47.902,355.904C45.07,352.927 40.363,352.818 37.398,355.662C34.433,358.505 34.325,363.231 37.157,366.208C41.523,370.798 46.265,375.023 51.324,378.77ZM20.284,343.559C22.333,347.125 26.88,348.35 30.431,346.293C33.983,344.236 35.203,339.67 33.154,336.104C30.383,331.281 28.03,326.286 26.148,321.228C24.714,317.371 20.431,315.409 16.59,316.85C12.748,318.29 10.795,322.591 12.229,326.447C14.393,332.265 17.097,338.011 20.284,343.559ZM6.194,298.361C6.408,302.472 9.906,305.636 14.001,305.421C18.095,305.206 21.246,301.694 21.032,297.583C20.754,292.227 21.136,287.003 22.279,282.066C23.207,278.056 20.718,274.043 16.725,273.111C12.731,272.179 8.735,274.678 7.806,278.688C6.357,284.949 5.841,291.569 6.194,298.361Z" style="fill:rgb(35,141,128);"/>
                </g>
            </g>
            <g transform="matrix(-0.384107,0,0,0.40679,334.75,-832.726)">
                <g>
                    <g transform="matrix(0.85775,0,0,0.85427,55.4667,50.1333)">
                        <path d="M281.6,41.173C281.6,41.173 421.76,63.147 411.093,263.147C411.093,263.893 427.307,274.773 428.587,275.947C440.424,286.211 449.086,299.647 453.547,314.667C468.373,369.387 415.467,425.813 372.693,440.747C356.642,446.236 339.84,449.222 322.88,449.6C212.907,452.8 67.2,382.72 59.733,245.867C58.698,215.232 64.188,184.725 75.84,156.373C75.84,156.48 137.067,4.373 281.6,41.173Z" style="fill:rgb(140,90,43);fill-rule:nonzero;"/>
                        <path d="M414.613,265.28C413.118,268.895 411.975,272.646 411.2,276.48C409.65,288.07 412.93,299.802 420.267,308.907C428.853,319.524 441.812,325.689 455.467,325.653C452.053,291.84 424.533,271.573 414.613,265.28ZM217.067,354.133C243.093,348.587 259.307,321.067 253.227,292.8C247.147,264.533 221.013,246.187 194.987,251.733C168.96,257.387 152.853,284.8 158.933,313.173C165.013,341.44 191.04,359.787 217.067,354.24L217.067,354.133Z" style="fill:rgb(220,36,0);fill-opacity:0.1;fill-rule:nonzero;"/>
                        <path d="M344.533,275.093C344.533,275.093 366.827,253.867 384,273.813L344.533,275.093Z" style="fill-opacity:0.1;fill-rule:nonzero;"/>
                        <path d="M137.28,380.693C63.253,417.813 -3.947,324.693 17.6,272.32C31.36,238.827 71.36,236.267 94.507,266.773C108.541,285.76 119.055,307.113 125.547,329.813" style="fill:rgb(140,90,43);fill-rule:nonzero;"/>
                        <path d="M76.267,297.6C85.867,307.2 93.44,321.6 102.933,329.6C101.12,316.267 98.347,301.867 91.84,289.813C85.227,277.44 73.173,267.413 60.907,268.16C45.76,269.227 33.28,286.933 31.68,302.933C32.747,293.333 51.947,286.933 59.307,287.787C70.827,309.547 75.307,352.427 75.307,352.427C84.907,328.213 81.067,309.013 76.373,297.493L76.267,297.6Z" style="fill-opacity:0.1;fill-rule:nonzero;"/>
                    </g>
                    <g transform="matrix(0.85472,0,0,0.855,20.2667,-18.1333)">
                        <path d="M419.52,391.467C422.72,393.28 445.227,365.013 460.267,373.653C465.28,376.533 469.12,381.44 472,386.773C478.4,398.507 480.533,412.8 478.08,426.027C473.881,444.136 462.777,459.91 447.147,469.973C407.253,497.173 375.68,492.053 333.227,476.373C299.733,463.893 254.293,438.4 263.68,392.427C280.32,311.36 419.52,391.36 419.52,391.36L419.52,391.467Z" style="fill:rgb(135,60,65);fill-rule:nonzero;"/>
                        <path d="M304.32,386.133C315.2,392.96 328.32,393.6 340.16,390.933C342.4,390.4 344.213,392.32 344.747,394.56C350.507,416.96 383.147,428.693 399.68,414.293C400.96,413.227 403.2,412.907 404.48,414.187C413.333,422.507 427.52,424.853 437.973,419.093C452.693,411.093 452.587,388.587 448.64,372.907C435.627,376.853 421.973,392.853 419.52,391.36C419.52,391.36 334.08,342.293 289.067,360C289.599,370.692 295.292,380.486 304.32,386.24L304.32,386.133Z" style="fill:white;fill-rule:nonzero;"/>
                        <path d="M426.987,473.387C403.52,451.947 374.827,439.893 345.707,431.467C320.747,424.107 292.693,419.413 267.413,426.667C279.147,451.733 309.227,467.413 333.227,476.373C370.347,490.133 399.147,495.787 432.427,478.72C430.613,476.907 428.907,475.093 426.987,473.387Z" style="fill:rgb(238,126,139);fill-rule:nonzero;"/>
                    </g>
                    <g transform="matrix(0.85472,0,0,0.855,20.2667,-18.1333)">
                        <path d="M353.28,320.533C353.28,333.227 346.667,343.467 332.907,341.333C322.987,338.667 316.373,331.733 316.373,318.4C316.373,304.533 324.587,295.467 332.907,295.467C344.213,295.467 353.28,307.84 353.173,320.533L353.28,320.533ZM446.933,320.32C446.933,328.853 443.093,337.92 433.28,336.853C424.96,336 422.933,325.12 422.933,319.787C422.933,310.507 427.627,301.653 434.453,301.653C441.707,301.653 446.933,311.787 446.933,320.32Z" style="fill:rgb(42,18,0);fill-rule:nonzero;"/>
                        <path d="M359.467,260.48C345.697,253.91 329.55,254.468 316.267,261.973C312,264.427 309.227,270.187 311.467,275.093C313.493,279.573 318.933,282.453 323.413,279.893C324.8,279.04 326.187,278.4 327.68,277.76C328.107,277.547 329.28,277.333 329.707,277.013L330.347,276.8C332.619,276.206 334.939,275.813 337.28,275.627L339.307,275.627C341.568,275.702 343.818,275.988 346.027,276.48L348.16,277.12C349.547,277.547 350.933,278.187 352.427,278.827C356.693,280.96 362.667,277.973 364.267,273.173C366.08,267.84 363.947,262.72 359.36,260.48L359.467,260.48ZM451.733,265.067C443.84,260.8 434.667,259.733 426.56,262.187C424.427,262.827 422.293,264.747 421.44,266.88C420.373,269.013 420.373,272 421.227,274.347C422.125,276.761 423.869,278.771 426.133,280C428.298,281.136 430.818,281.404 433.173,280.747L434.347,280.427L438.187,280.427C439.68,280.533 441.173,280.96 442.667,281.493L444.16,282.133C446.293,283.307 449.067,283.627 451.307,282.88C453.44,282.24 455.573,280.427 456.427,278.187C457.28,276.053 457.6,273.28 456.64,270.827C455.573,268.373 454.08,266.347 451.733,265.067Z" style="fill:rgb(113,71,45);fill-rule:nonzero;"/>
                    </g>
                    <g transform="matrix(0.85472,0,0,0.85667,19.2,-16)">
                        <path d="M191.253,175.787C144.64,175.787 106.88,134.827 106.88,84.16C106.88,33.6 144.64,-7.467 191.147,-7.467C237.76,-7.467 275.52,33.6 275.52,84.267C275.52,134.827 237.76,175.787 191.253,175.787Z" style="fill:rgb(226,186,135);fill-rule:nonzero;"/>
                        <path d="M191.253,175.787C144.64,175.787 106.88,134.827 106.88,84.16C106.88,75.627 107.947,67.52 109.867,59.733C123.413,69.867 174.933,84.053 272.533,59.733C274.548,67.755 275.551,75.996 275.52,84.267C275.52,134.827 237.76,175.787 191.253,175.787Z" style="fill-opacity:0.2;fill-rule:nonzero;"/>
                        <path d="M146.133,325.333C151.04,275.84 230.4,234.24 230.4,234.24C228.601,241.911 225.537,249.229 221.333,255.893C219.733,258.453 221.333,261.76 224.107,261.973C298.773,267.84 394.987,187.2 394.987,187.2C415.253,213.333 438.72,249.6 450.667,261.76C452.373,263.467 455.147,262.08 455.04,259.52C450.56,88.533 285.867,54.613 174.293,92.16C72.213,126.613 -12.8,259.947 58.027,357.333C61.973,344.853 76.907,320.747 104.96,323.733C109.653,324.8 122.027,330.133 134.4,342.933C136.213,344.96 151.467,350.4 146.133,325.333Z" style="fill:rgb(226,186,135);fill-rule:nonzero;"/>
                        <path d="M379.733,167.573C379.733,167.573 370.88,157.12 351.68,158.827C351.68,158.827 365.227,151.36 374.08,152.427C374.08,152.427 349.973,134.507 314.773,145.813C314.773,145.813 339.627,128.32 359.253,130.56C359.253,130.56 338.347,121.387 325.12,123.52C325.12,123.52 335.573,110.507 349.227,110.933C349.227,110.933 338.347,91.733 321.493,85.653C321.493,85.653 355.2,95.253 364.16,102.187C383.68,110.507 401.813,134.933 401.813,134.933C395.733,131.413 386.133,132.267 386.133,132.267C401.813,141.867 413.867,159.787 413.867,159.787C406.187,154.453 397.013,156.267 397.013,156.267C406.221,165.846 412.958,177.526 416.64,190.293C414.613,184.107 400.213,176.747 400.213,176.747C404.021,184.984 406.333,193.833 407.04,202.88L394.987,187.2C394.987,187.2 370.453,207.68 364.053,210.347C364.053,210.347 382.507,191.147 383.68,182.4C383.68,182.4 355.947,189.867 333.973,192.853C333.973,192.853 364.907,169.387 379.733,167.573Z" style="fill-opacity:0.1;fill-rule:nonzero;"/>
                    </g>
                </g>
            </g>
            <g transform="matrix(-0.384107,0,0,0.40679,482.652,-711.335)">
                <g>
                    <g transform="matrix(0.85775,0,0,0.85427,55.4667,50.1333)">
                        <path d="M281.6,41.173C281.6,41.173 421.76,63.147 411.093,263.147C411.093,263.893 427.307,274.773 428.587,275.947C440.424,286.211 449.086,299.647 453.547,314.667C468.373,369.387 415.467,425.813 372.693,440.747C356.642,446.236 339.84,449.222 322.88,449.6C212.907,452.8 67.2,382.72 59.733,245.867C58.698,215.232 64.188,184.725 75.84,156.373C75.84,156.48 137.067,4.373 281.6,41.173Z" style="fill:rgb(245,215,177);fill-rule:nonzero;"/>
                        <path d="M414.613,265.28C413.118,268.895 411.975,272.646 411.2,276.48C409.65,288.07 412.93,299.802 420.267,308.907C428.853,319.524 441.812,325.689 455.467,325.653C452.053,291.84 424.533,271.573 414.613,265.28ZM217.067,354.133C243.093,348.587 259.307,321.067 253.227,292.8C247.147,264.533 221.013,246.187 194.987,251.733C168.96,257.387 152.853,284.8 158.933,313.173C165.013,341.44 191.04,359.787 217.067,354.24L217.067,354.133Z" style="fill:rgb(220,36,0);fill-opacity:0.1;fill-rule:nonzero;"/>
                        <path d="M344.533,275.093C344.533,275.093 366.827,253.867 384,273.813L344.533,275.093Z" style="fill-opacity:0.1;fill-rule:nonzero;"/>
                        <path d="M137.28,380.693C63.253,417.813 -3.947,324.693 17.6,272.32C31.36,238.827 71.36,236.267 94.507,266.773C108.541,285.76 119.055,307.113 125.547,329.813" style="fill:rgb(245,215,177);fill-rule:nonzero;"/>
                        <path d="M76.267,297.6C85.867,307.2 93.44,321.6 102.933,329.6C101.12,316.267 98.347,301.867 91.84,289.813C85.227,277.44 73.173,267.413 60.907,268.16C45.76,269.227 33.28,286.933 31.68,302.933C32.747,293.333 51.947,286.933 59.307,287.787C70.827,309.547 75.307,352.427 75.307,352.427C84.907,328.213 81.067,309.013 76.373,297.493L76.267,297.6Z" style="fill-opacity:0.1;fill-rule:nonzero;"/>
                    </g>
                    <g transform="matrix(0.85472,0,0,0.855,20.2667,-18.1333)">
                        <path d="M419.52,391.467C422.72,393.28 445.227,365.013 460.267,373.653C465.28,376.533 469.12,381.44 472,386.773C478.4,398.507 480.533,412.8 478.08,426.027C473.881,444.136 462.777,459.91 447.147,469.973C407.253,497.173 375.68,492.053 333.227,476.373C299.733,463.893 254.293,438.4 263.68,392.427C280.32,311.36 419.52,391.36 419.52,391.36L419.52,391.467Z" style="fill:rgb(135,60,65);fill-rule:nonzero;"/>
                        <path d="M304.32,386.133C315.2,392.96 328.32,393.6 340.16,390.933C342.4,390.4 344.213,392.32 344.747,394.56C350.507,416.96 383.147,428.693 399.68,414.293C400.96,413.227 403.2,412.907 404.48,414.187C413.333,422.507 427.52,424.853 437.973,419.093C452.693,411.093 452.587,388.587 448.64,372.907C435.627,376.853 421.973,392.853 419.52,391.36C419.52,391.36 334.08,342.293 289.067,360C289.599,370.692 295.292,380.486 304.32,386.24L304.32,386.133Z" style="fill:white;fill-rule:nonzero;"/>
                        <path d="M426.987,473.387C403.52,451.947 374.827,439.893 345.707,431.467C320.747,424.107 292.693,419.413 267.413,426.667C279.147,451.733 309.227,467.413 333.227,476.373C370.347,490.133 399.147,495.787 432.427,478.72C430.613,476.907 428.907,475.093 426.987,473.387Z" style="fill:rgb(238,126,139);fill-rule:nonzero;"/>
                    </g>
                    <g transform="matrix(0.85472,0,0,0.855,20.2667,-18.1333)">
                        <path d="M353.28,320.533C353.28,333.227 346.667,343.467 332.907,341.333C322.987,338.667 316.373,331.733 316.373,318.4C316.373,304.533 324.587,295.467 332.907,295.467C344.213,295.467 353.28,307.84 353.173,320.533L353.28,320.533ZM446.933,320.32C446.933,328.853 443.093,337.92 433.28,336.853C424.96,336 422.933,325.12 422.933,319.787C422.933,310.507 427.627,301.653 434.453,301.653C441.707,301.653 446.933,311.787 446.933,320.32Z" style="fill:rgb(42,18,0);fill-rule:nonzero;"/>
                        <path d="M359.467,260.48C345.697,253.91 329.55,254.468 316.267,261.973C312,264.427 309.227,270.187 311.467,275.093C313.493,279.573 318.933,282.453 323.413,279.893C324.8,279.04 326.187,278.4 327.68,277.76C328.107,277.547 329.28,277.333 329.707,277.013L330.347,276.8C332.619,276.206 334.939,275.813 337.28,275.627L339.307,275.627C341.568,275.702 343.818,275.988 346.027,276.48L348.16,277.12C349.547,277.547 350.933,278.187 352.427,278.827C356.693,280.96 362.667,277.973 364.267,273.173C366.08,267.84 363.947,262.72 359.36,260.48L359.467,260.48ZM451.733,265.067C443.84,260.8 434.667,259.733 426.56,262.187C424.427,262.827 422.293,264.747 421.44,266.88C420.373,269.013 420.373,272 421.227,274.347C422.125,276.761 423.869,278.771 426.133,280C428.298,281.136 430.818,281.404 433.173,280.747L434.347,280.427L438.187,280.427C439.68,280.533 441.173,280.96 442.667,281.493L444.16,282.133C446.293,283.307 449.067,283.627 451.307,282.88C453.44,282.24 455.573,280.427 456.427,278.187C457.28,276.053 457.6,273.28 456.64,270.827C455.573,268.373 454.08,266.347 451.733,265.067Z" style="fill:rgb(113,71,45);fill-rule:nonzero;"/>
                    </g>
                    <g transform="matrix(0.85472,0,0,0.85667,19.2,-16)">
                        <path d="M370.133,180.267C378.667,219.52 423.147,238.187 444.267,242.667C451.52,267.84 453.333,319.253 453.333,341.333C468.143,348.982 480.522,360.622 489.067,374.933C486.405,365.099 486.777,354.686 490.133,345.067C491.2,340.373 492.693,335.04 493.867,328C497.173,308.053 476.48,282.347 465.493,268.587C464.107,266.88 462.827,265.387 461.867,264C457.493,258.24 458.88,245.867 460.373,232.107C462.08,217.707 463.893,201.813 459.2,190.933C450.133,169.6 420.8,150.933 405.333,149.333C398.933,148.693 395.307,144.64 390.08,138.987C382.613,130.773 371.733,118.933 345.067,108.267C318.007,97.939 287.827,99.37 261.867,112.213C157.973,121.067 120,227.413 117.867,232.853L117.867,233.067C106.468,261.51 101.232,292.051 102.507,322.667C143.147,329.707 162.347,373.227 166.933,394.133C166.933,394.133 178.987,394.88 181.867,392.533C196.8,384.747 223.36,352.64 210.133,286.933C203.733,257.067 208,233.28 260.267,196.267C292.693,173.333 337.067,173.547 370.133,180.267ZM483.2,460.8C487.467,453.013 496.853,432.747 498.133,416.533C508.45,426.392 515.364,439.285 517.867,453.333C518.123,463.715 515.342,473.949 509.867,482.773C506.347,489.707 503.36,495.787 504.533,500.8C506.667,509.76 511.467,515.52 513.6,517.333C498.987,523.947 460.16,533.333 427.733,512C438.4,506.667 465.067,488.107 483.2,460.8Z" style="fill:rgb(96,93,228);fill-rule:nonzero;"/>
                        <path d="M370.133,180.267C361.067,159.467 326.4,116.907 260.267,113.067L261.867,112.213C157.973,121.067 120,227.413 117.867,232.853L117.867,233.067C106.468,261.51 101.232,292.051 102.507,322.667C143.147,329.707 162.347,373.227 166.933,394.133C166.933,394.133 178.987,394.88 181.867,392.533C196.8,384.747 223.36,352.64 210.133,286.933C203.733,257.067 208,233.28 260.267,196.267C292.693,173.333 337.067,173.547 370.133,180.267Z" style="fill-opacity:0.3;fill-rule:nonzero;"/>
                        <path d="M476.8,358.827C474.667,353.813 475.733,349.333 477.12,344.107C477.867,341.12 478.613,338.027 478.933,334.4C479.787,325.013 476.8,313.067 475.2,308.267C475.2,313.387 474.667,325.867 472.533,334.4C471.127,339.646 468.658,344.547 465.28,348.8C469.547,352 473.493,355.52 476.693,358.827L476.8,358.827ZM501.867,521.387L503.467,519.467C490.133,499.733 497.6,480.533 503.467,467.733C506.937,460.301 506.937,451.699 503.467,444.267C503.467,457.707 499.947,462.293 495.04,468.373C485.844,478.925 480.965,492.57 481.387,506.56C481.387,511.467 481.387,514.24 478.933,513.067C474.667,510.933 472.853,505.813 472.533,503.467C471.335,510.693 471.552,518.083 473.173,525.227C484.053,525.227 493.973,523.627 501.973,521.387L501.867,521.387ZM402.133,207.467C391.123,197.987 382.684,185.877 377.6,172.267C381.333,179.2 394.667,196.053 418.133,207.467C441.6,218.88 450.347,231.787 451.733,236.8C446.72,227.84 436.373,223.68 425.28,219.307C417.387,216.107 409.067,212.907 402.133,207.467Z" style="fill-opacity:0.2;fill-rule:nonzero;"/>
                    </g>
                    <g transform="matrix(0.85472,0,0,0.85667,14.9333,-12.8)">
                        <path d="M276.053,311.573C280,328.533 288,343.893 301.973,349.227C332.907,360.96 377.707,352.427 384.107,345.493C388.014,338.737 390.789,331.386 392.32,323.733C410.453,313.493 426.24,319.04 431.467,322.667C432.853,330.88 434.24,337.6 435.413,339.52C438.613,345.493 461.333,352.853 477.013,342.72C492.8,332.587 493.333,271.253 490.347,264.853C486.72,257.067 430.933,260.8 428.587,275.52C426.987,280 427.84,293.867 429.44,307.52C420.907,304.747 409.067,303.573 395.947,308.053C399.147,292.267 400.533,276.48 397.44,271.36C392,252.8 278.4,244.8 275.84,259.093C273.173,266.56 271.893,282.133 273.707,298.453C227.307,292.48 150.827,282.88 133.973,281.067C124.356,280.582 114.8,282.879 106.453,287.68C101.44,290.56 96.747,294.613 93.547,300.373C90.24,306.133 88.747,313.173 89.6,321.28L102.4,319.787C101.653,314.133 102.827,309.867 104.533,306.667C106.453,303.467 109.333,300.8 112.853,298.773C120.107,294.507 128.853,293.44 132.693,293.867C149.76,295.68 229.973,305.707 276.053,311.573Z" style="fill:rgb(89,87,87);fill-rule:nonzero;"/>
                        <path d="M348.8,254.293C337.387,252.8 325.333,251.947 314.453,251.84L271.68,311.04L276.053,311.573C278.08,320.107 281.067,328.107 285.333,334.827L348.8,254.293ZM385.707,262.613C378.263,259.893 370.587,257.857 362.773,256.533L292.693,343.467C295.467,345.813 298.56,347.733 301.973,349.12C304.533,350.08 307.093,350.827 309.76,351.573L385.707,262.507L385.707,262.613ZM491.093,298.347C492.16,284.48 491.84,271.467 490.773,266.56L434.24,336.64L435.307,339.52C436.907,342.293 442.56,345.28 449.707,346.773L491.093,298.347Z" style="fill:white;fill-opacity:0.2;fill-rule:nonzero;"/>
                    </g>
                </g>
            </g>
            <g transform="matrix(1,0,0,1,281.261,260.024)">
                <g transform="matrix(-1.40502,-0.259034,-0.246355,1.49874,3199.42,-461.558)">
                    <path d="M2053.48,200.256L2107.18,151.829C2110.67,148.687 2115.98,148.681 2119.47,151.815L2173.16,200L2173.16,290.256L2053.48,290.256L2053.48,200.256Z" style="fill:white;"/>
                </g>
                <g transform="matrix(-1.40502,-0.259034,-0.246355,1.49874,3199.42,-461.558)">
                    <path d="M2045.79,191.847L2099.49,143.421L2102.6,141.106L2106.02,139.442L2109.62,138.444L2113.31,138.109L2117,138.435L2120.61,139.425L2124.03,141.081L2127.15,143.388L2180.84,191.573C2183.24,193.727 2184.6,196.788 2184.6,200L2184.6,290.256C2184.6,296.53 2179.48,301.616 2173.16,301.616L2053.48,301.616C2047.16,301.616 2042.04,296.53 2042.04,290.256L2042.04,200.256C2042.04,197.054 2043.4,194 2045.79,191.847ZM2053.48,200.256L2053.48,290.256L2173.16,290.256L2173.16,200L2119.47,151.815C2115.98,148.681 2110.67,148.687 2107.18,151.829L2053.48,200.256Z" style="fill:rgb(218,217,214);"/>
                </g>
                <g transform="matrix(0.717847,0.0103381,-0.00994691,0.957485,-52.255,-931.466)">
                    <path d="M385.123,153.589C400.159,153.589 412.327,163.251 412.327,175.19C412.327,211.367 412.327,283.8 412.327,320.053C412.327,325.806 409.444,331.329 404.313,335.403C399.183,339.476 392.227,341.766 384.981,341.766C351.777,341.766 296.116,341.766 262.975,341.766C247.939,341.766 235.771,332.104 235.771,320.165C235.771,283.988 235.771,211.554 235.771,175.302C235.771,169.548 238.654,164.025 243.784,159.952C248.915,155.878 255.871,153.589 263.117,153.589C296.321,153.589 351.982,153.589 385.123,153.589Z" style="fill:rgb(70,167,88);"/>
                </g>
                <g transform="matrix(12.327,0.177528,-0.13654,13.1433,-8187.85,-3930.94)">
                    <g transform="matrix(12,0,0,12,684.561,241.617)">
                    </g>
                    <text x="677.889px" y="241.617px" style="font-family:'DINRoundPro-Black', 'DIN Round Pro', sans-serif;font-weight:900;font-size:12px;fill:white;">1</text>
                </g>
                <g transform="matrix(1.40502,0.259034,0.246355,-1.49874,-2837.79,-956.139)">
                    <path d="M2173.16,200.256L2173.16,110.256L2053.48,110.512L2053.48,200.256L2113.32,146.293L2173.16,200.256Z" style="fill:white;"/>
                </g>
                <g transform="matrix(1.40502,0.259034,0.246355,-1.49874,-2837.79,-956.139)">
                    <path d="M2165.47,208.665L2113.32,161.639L2061.18,208.665C2057.82,211.688 2052.99,212.463 2048.85,210.644C2044.71,208.824 2042.04,204.752 2042.04,200.256L2042.04,110.512C2042.04,104.248 2047.15,99.166 2053.46,99.153L2173.14,98.896C2176.18,98.89 2179.09,100.084 2181.24,102.215C2183.39,104.346 2184.6,107.239 2184.6,110.256L2184.6,200.256C2184.6,204.752 2181.93,208.824 2177.79,210.644C2173.65,212.463 2168.82,211.688 2165.47,208.665ZM2173.16,200.256L2173.16,110.256L2053.48,110.512L2053.48,200.256L2113.32,146.293L2173.16,200.256Z" style="fill:rgb(218,217,214);"/>
                </g>
                <g transform="matrix(-1.40502,-0.259034,-0.246355,1.49874,3177.25,-326.671)">
                    <path d="M2053.48,200.256C2053.48,200.256 2091.92,165.593 2107.18,151.829C2110.67,148.687 2115.98,148.681 2119.47,151.815C2134.75,165.522 2173.16,200 2173.16,200" style="fill:white;"/>
                </g>
                <g transform="matrix(-1.40502,-0.259034,-0.246355,1.49874,3177.25,-326.671)">
                    <path d="M2057.33,204.461C2054.99,206.568 2051.37,206.396 2049.25,204.075C2047.12,201.755 2047.3,198.159 2049.64,196.052L2103.34,147.625C2109,142.519 2117.64,142.509 2123.31,147.602L2177,195.787C2179.34,197.889 2179.52,201.483 2177.41,203.809C2175.29,206.134 2171.67,206.316 2169.33,204.213L2115.64,156.028C2114.33,154.853 2112.34,154.855 2111.03,156.034L2057.33,204.461Z" style="fill:rgb(218,217,214);"/>
                </g>
            </g>
        </g>
    </g>
</svg>
